<?xml version="1.0" encoding="UTF-8" standalone="no"?>
<!-- Created with Inkscape (http://www.inkscape.org/) -->

<svg
   xmlns:dc="http://purl.org/dc/elements/1.1/"
   xmlns:cc="http://creativecommons.org/ns#"
   xmlns:rdf="http://www.w3.org/1999/02/22-rdf-syntax-ns#"
   xmlns:svg="http://www.w3.org/2000/svg"
   xmlns="http://www.w3.org/2000/svg"
   xmlns:sodipodi="http://sodipodi.sourceforge.net/DTD/sodipodi-0.dtd"
   xmlns:inkscape="http://www.inkscape.org/namespaces/inkscape"
   width="216.11226mm"
   height="216.25932mm"
   viewBox="0 0 216.11226 216.25932"
   version="1.1"
   id="svg8"
   inkscape:version="0.92.1 r15371"
   sodipodi:docname="logo.svg">
  <defs
     id="defs2" />
  <sodipodi:namedview
     id="base"
     pagecolor="#ffffff"
     bordercolor="#666666"
     borderopacity="1.0"
     inkscape:pageopacity="0.0"
     inkscape:pageshadow="2"
     inkscape:zoom="0.7"
     inkscape:cx="522.91315"
     inkscape:cy="413.18196"
     inkscape:document-units="mm"
     inkscape:current-layer="layer1"
     showgrid="false"
     inkscape:window-width="1280"
     inkscape:window-height="967"
     inkscape:window-x="0"
     inkscape:window-y="0"
     inkscape:window-maximized="1"
     objecttolerance="1"
     gridtolerance="10000"
     guidetolerance="1"
     fit-margin-top="0"
     fit-margin-left="0"
     fit-margin-right="0"
     fit-margin-bottom="0" />
  <metadata
     id="metadata5">
    <rdf:RDF>
      <cc:Work
         rdf:about="">
        <dc:format>image/svg+xml</dc:format>
        <dc:type
           rdf:resource="http://purl.org/dc/dcmitype/StillImage" />
        <dc:title></dc:title>
      </cc:Work>
    </rdf:RDF>
  </metadata>
  <g
     inkscape:label="Layer 1"
     inkscape:groupmode="layer"
     id="layer1"
     transform="translate(-0.5276489,-80.265625)">
    <path
       style="fill:#000000;stroke-width:0.26458335"
       d="m 104.19531,80.267578 c -1.17806,0.1218 -2.35535,0.250888 -3.5331,0.375674 -1.445717,0.1548 -2.891575,0.308334 -4.337204,0.463921 -0.519143,0.06063 -1.038285,0.12126 -1.557428,0.181889 -1.188151,0.184896 -2.376302,0.369792 -3.564453,0.554688 -0.796334,0.142482 -1.592983,0.283239 -2.387863,0.433688 -0.552583,0.102256 -1.104764,0.206659 -1.657059,0.310453 -0.99393,0.219451 -1.987867,0.438965 -2.980613,0.663683 -0.917352,0.220615 -1.834435,0.442415 -2.749862,0.67089 -0.85489,0.213582 -1.701777,0.457464 -2.549406,0.697852 -0.452787,0.130358 -0.906081,0.259153 -1.358005,0.3924 -0.987828,0.312436 -1.973412,0.6319 -2.956998,0.957435 -0.374622,0.123231 -0.749244,0.246462 -1.123866,0.369693 -1.401127,0.519555 -2.803071,1.036936 -4.203688,1.55785 -0.388211,0.148834 -0.77789,0.29398 -1.165189,0.445102 -0.804991,0.335583 -1.611016,0.668715 -2.41537,1.005808 -0.399392,0.170908 -0.798783,0.341816 -1.198175,0.512724 -1.203171,0.570471 -2.407147,1.139273 -3.609816,1.710783 -0.379145,0.18701 -0.76054,0.369552 -1.134418,0.567018 -0.482071,0.248682 -0.96463,0.496475 -1.441313,0.755402 -0.555248,0.300678 -1.112385,0.597919 -1.666473,0.90071 -0.789969,0.438835 -1.575262,0.88602 -2.357354,1.338735 -0.401551,0.231593 -0.798495,0.471099 -1.197167,0.707593 -0.729488,0.445167 -1.462342,0.885025 -2.18154,1.346774 -0.460169,0.291711 -0.913694,0.593738 -1.37019,0.891133 -0.507306,0.337172 -1.016745,0.671167 -1.51874,1.016243 -0.811434,0.552078 -1.613966,1.117061 -2.419473,1.677721 -0.813236,0.58625 -1.609127,1.19596 -2.410947,1.7976 -0.265598,0.20337 -0.538923,0.39685 -0.796337,0.61069 -1.276609,1.03643 -2.553217,2.07286 -3.829825,3.10929 -0.965551,0.86648 -1.932011,1.73196 -2.896996,2.59907 -0.43733,0.40057 -0.874659,0.80114 -1.311989,1.20171 -0.787269,0.77524 -1.575593,1.54943 -2.362207,2.32533 -0.40383,0.40752 -0.810851,0.8119 -1.207503,1.22646 -0.601095,0.61974 -1.19857,1.24301 -1.789753,1.87223 -0.255709,0.27313 -0.503091,0.55397 -0.75484,0.83075 -0.325571,0.36304 -0.65197,0.72534 -0.970496,1.0946 -0.683724,0.78337 -1.360185,1.57303 -2.040201,2.35961 -0.673198,0.85052 -1.348289,1.69954 -2.020313,2.55098 -0.278021,0.35727 -0.557189,0.71367 -0.827701,1.0767 -0.391433,0.51784 -0.776922,1.04016 -1.161725,1.56294 -0.212187,0.28928 -0.427447,0.57636 -0.630551,0.87217 -0.4016,0.5715 -0.802267,1.14368 -1.199163,1.71844 -0.372702,0.54987 -0.747588,1.09827 -1.113053,1.65299 -0.217161,0.32461 -0.432605,0.65034 -0.642004,0.98002 -0.373085,0.57604 -0.73917,1.15654 -1.106662,1.73615 -0.356771,0.59571 -0.713541,1.19141 -1.070312,1.78711 -0.503579,0.89406 -1.009795,1.78664 -1.511709,2.68162 -0.432742,0.77435 -0.837824,1.56366 -1.254033,2.34691 -0.181626,0.34928 -0.373377,0.69339 -0.544159,1.0482 -0.358921,0.73008 -0.72037,1.45894 -1.077728,2.18976 -0.333848,0.71435 -0.666475,1.42929 -0.993026,2.14699 -0.2428969,0.5584 -0.4893219,1.11528 -0.7234283,1.67745 -0.3197938,0.7528 -0.6300253,1.50961 -0.9447451,2.26454 -0.2140393,0.54537 -0.429641,1.09015 -0.6349803,1.63888 -0.2422041,0.63649 -0.4765164,1.27597 -0.7132629,1.9145 -0.2506496,0.70661 -0.5039024,1.41232 -0.752943,2.11947 -0.188858,0.5698 -0.3811752,1.13848 -0.5610806,1.71119 -0.1913338,0.59134 -0.3732585,1.18566 -0.5565258,1.77953 -0.1654241,0.56221 -0.3358926,1.12297 -0.4909983,1.68816 -0.2338874,0.83892 -0.4553242,1.68126 -0.6792049,2.52289 -0.1370358,0.51823 -0.2715164,1.03716 -0.4012497,1.55726 -0.2635622,1.12844 -0.5218292,2.25814 -0.7701169,3.39005 -0.083114,0.39114 -0.1727044,0.78104 -0.241134,1.17512 -0.1560116,0.84799 -0.3120232,1.69598 -0.4680348,2.54397 -0.1517749,0.99255 -0.3051793,1.98487 -0.4559454,2.97758 -0.1273151,0.90656 -0.2546302,1.81312 -0.3819452,2.71968 -0.1197917,1.1888 -0.2395834,2.37761 -0.35937505,3.56641 -0.0637061,0.93408 -0.12961139,1.86804 -0.19196094,2.80221 -0.0429534,0.80206 -0.0816112,1.60439 -0.10709322,2.40723 -0.0239571,0.62254 -0.0375073,1.24543 -0.0530958,1.86822 -0.007217,0.64323 -0.0168159,1.28645 -0.0225449,1.92969 0.003996,0.63847 0.006133,1.27696 0.0189494,1.91534 0.007561,0.67076 0.0339569,1.34109 0.0515843,2.01162 0.0212054,0.59406 0.0460044,1.18802 0.0704297,1.78195 0.0460573,0.88532 0.097592,1.77035 0.15917163,2.65473 0.0351962,0.56784 0.0856955,1.13453 0.1351067,1.70127 0.0839844,0.83724 0.16796878,1.67448 0.25195318,2.51172 0.1523931,1.11161 0.3029061,2.22349 0.456469,3.33493 0.1230252,0.83029 0.263693,1.65784 0.4062301,2.48497 0.1004092,0.58604 0.206606,1.17109 0.3159308,1.75553 0.1160721,0.60394 0.235853,1.20715 0.3595099,1.80959 0.095935,0.4689 0.1968338,0.93679 0.2972612,1.40473 0.1838246,0.82977 0.3679876,1.65948 0.5591302,2.4876 0.1373688,0.55564 0.2865695,1.10827 0.4353787,1.66093 0.1951952,0.7274 0.4014998,1.45175 0.6065076,2.17643 0.1304227,0.45559 0.2579487,0.91205 0.3903657,1.36705 0.1950363,0.63072 0.3942562,1.26015 0.5950149,1.88906 0.2406371,0.74137 0.4731175,1.48544 0.7247693,2.22318 0.1648494,0.48326 0.3375759,0.96381 0.5065062,1.44566 0.1538734,0.4242 0.3025494,0.85033 0.4598121,1.27327 0.2501672,0.64858 0.4971302,1.2984 0.7554385,1.9438 0.1484639,0.37632 0.2958852,0.75306 0.4534082,1.12571 0.2334442,0.56154 0.4637864,1.12442 0.7019756,1.68396 0.2299097,0.53806 0.4703928,1.07152 0.707264,1.60653 0.3680682,0.81496 0.7465412,1.62517 1.1351352,2.43054 0.467304,0.97444 0.956127,1.93834 1.436627,2.9063 0.250269,0.48169 0.50056,0.96338 0.758831,1.44085 0.321618,0.59976 0.650759,1.19547 0.975544,1.79352 0.612738,1.07714 1.24882,2.14072 1.876214,3.20933 0.204124,0.34622 0.421889,0.68418 0.631974,1.02679 0.25626,0.41134 0.518174,0.81914 0.777911,1.22828 0.337059,0.51659 0.66766,1.03743 1.01372,1.54808 0.463167,0.69405 0.928648,1.38656 1.397599,2.07672 0.354091,0.52893 0.718952,1.05056 1.092647,1.56582 0.336624,0.46363 0.666828,0.93207 1.016576,1.386 0.424438,0.5544 0.847097,1.11017 1.278169,1.65945 0.219341,0.28444 0.442132,0.56615 0.66891,0.8447 0.700928,0.87083 1.406922,1.73767 2.126637,2.59307 0.368961,0.4418 0.747977,0.87508 1.121596,1.31293 0.558952,0.63907 1.124137,1.27262 1.691406,1.9043 0.409157,0.45108 0.829377,0.89188 1.246094,1.33594 0.294717,0.30888 0.589404,0.61779 0.890994,0.92 0.40072,0.40451 0.803553,0.80695 1.207762,1.20797 0.400837,0.39418 0.798657,0.79147 1.207037,1.17789 0.39348,0.37804 0.790591,0.75231 1.189545,1.12454 0.615045,0.56798 1.231118,1.13494 1.857286,1.69067 0.597732,0.53388 1.19748,1.06553 1.803618,1.58986 0.37377,0.32651 0.752574,0.64718 1.128914,0.97071 0.475028,0.38493 0.94516,0.77596 1.427318,1.152 0.490775,0.39077 0.987205,0.77431 1.483449,1.15809 0.369467,0.2879 0.740986,0.57311 1.115722,0.85413 0.429599,0.32548 0.861527,0.6479 1.293975,0.96956 0.683112,0.49563 1.370345,0.98557 2.063051,1.4677 0.633594,0.4336 1.269732,0.86353 1.907399,1.29112 0.759619,0.50684 1.531676,0.99464 2.302161,1.4847 0.326457,0.20461 0.64967,0.41451 0.97826,0.61566 0.747044,0.44733 1.495405,0.89245 2.245842,1.33407 0.421482,0.24792 0.848804,0.48579 1.272667,0.72961 0.39786,0.22368 0.793086,0.45212 1.192583,0.67284 0.586989,0.31734 1.175163,0.63253 1.766514,0.94167 0.76103,0.39086 1.52206,0.78173 2.283091,1.1726 0.704031,0.33331 1.406252,0.67048 2.114054,0.99576 0.554345,0.25637 1.107078,0.51635 1.664304,0.76641 0.858823,0.38398 1.721643,0.75907 2.590899,1.11886 0.556191,0.23442 1.116203,0.45962 1.675756,0.68585 0.402629,0.16109 0.806608,0.31871 1.212597,0.47115 0.796904,0.30157 1.595074,0.59983 2.39544,0.89208 0.735954,0.25994 1.472727,0.51753 2.211009,0.7708 0.474555,0.16178 0.952635,0.31309 1.430164,0.46583 0.535171,0.16473 1.067554,0.33869 1.606013,0.49254 0.605864,0.17919 1.214332,0.34941 1.823205,0.51804 0.941093,0.25922 1.883207,0.51471 2.825387,0.76994 0.829647,0.19247 1.658725,0.3875 2.488727,0.57837 0.680481,0.14317 1.360396,0.28917 2.041223,0.43061 0.946856,0.18018 1.894474,0.35628 2.842532,0.53002 0.498339,0.0921 0.996421,0.1866 1.498513,0.25633 0.973047,0.14064 1.945935,0.28246 2.919144,0.42194 0.749422,0.0984 1.498551,0.19912 2.248156,0.29599 1.011453,0.11445 2.022617,0.23197 3.035899,0.32935 0.464278,0.0452 0.928854,0.0881 1.394014,0.12308 0.63613,0.0376 1.27239,0.0729 1.90875,0.10658 0.85753,0.0177 1.71504,0.0372 2.57271,0.0473 0.74869,0.0121 1.49755,0.0212 2.2463,0.009 1.12576,-0.0152 2.25157,-0.0279 3.3773,-0.0447 0.79555,-0.0172 1.59103,-0.0365 2.38639,-0.0607 0.57807,-0.0177 1.15632,-0.0313 1.73395,-0.0608 0.68561,-0.0298 1.37044,-0.0747 2.05569,-0.11168 0.29298,-0.0128 0.58511,-0.0375 0.87703,-0.0649 0.96076,-0.0838 1.92109,-0.17232 2.88148,-0.26016 0.76493,-0.0864 1.52876,-0.18234 2.29203,-0.2822 0.68458,-0.0956 1.36837,-0.197 2.05022,-0.31053 0.42726,-0.0695 0.85393,-0.14272 1.28021,-0.21789 0.62633,-0.11727 1.25347,-0.23032 1.87928,-0.3503 0.68403,-0.13381 1.36747,-0.27057 2.05008,-0.41149 0.63416,-0.12793 1.26671,-0.26377 1.89692,-0.40998 0.72754,-0.16637 1.4521,-0.34544 2.17622,-0.52602 0.4959,-0.12764 0.99285,-0.25133 1.48607,-0.38912 1.04893,-0.28546 2.09786,-0.57092 3.14679,-0.85638 0.77471,-0.23705 1.54894,-0.47571 2.32132,-0.72022 0.65064,-0.2134 1.3005,-0.42914 1.94873,-0.64972 0.61601,-0.20932 1.23244,-0.41747 1.84765,-0.62906 0.54945,-0.19996 1.09895,-0.39978 1.64539,-0.60789 0.5531,-0.20647 1.10051,-0.42779 1.65097,-0.64116 1.00376,-0.40804 2.00726,-0.8169 3.00436,-1.241 0.46952,-0.20026 0.93709,-0.40515 1.39967,-0.62103 0.74809,-0.34766 1.49604,-0.6957 2.24111,-1.04977 0.83344,-0.39773 1.66111,-0.80739 2.49158,-1.21124 0.70657,-0.36278 1.40899,-0.73356 2.10817,-1.11039 0.36504,-0.19623 0.7321,-0.3888 1.09177,-0.59482 0.47901,-0.26667 0.95529,-0.53817 1.43027,-0.81194 0.4763,-0.27131 0.9438,-0.55767 1.41589,-0.8362 0.42671,-0.25595 0.85438,-0.51037 1.28001,-0.76808 0.6763,-0.42355 1.35116,-0.84941 2.02292,-1.28012 0.68791,-0.45093 1.37543,-0.90251 2.05906,-1.35992 0.77374,-0.52526 1.54434,-1.05522 2.30819,-1.59478 0.46722,-0.33169 0.93486,-0.66295 1.39188,-1.00868 0.53979,-0.40348 1.07637,-0.81122 1.61132,-1.2211 0.53535,-0.40426 1.05693,-0.82626 1.58325,-1.2421 0.93297,-0.75691 1.8584,-1.52304 2.78711,-2.28516 0.64906,-0.55567 1.30025,-1.10922 1.93053,-1.68627 0.55944,-0.50617 1.11618,-1.01535 1.67001,-1.52764 0.53054,-0.49324 1.05884,-0.98903 1.57624,-1.49607 0.47908,-0.47861 0.95607,-0.95934 1.43161,-1.44147 0.69277,-0.7113 1.38117,-1.42683 2.06911,-2.1428 0.24534,-0.25692 0.49628,-0.5086 0.73203,-0.7745 0.44285,-0.48547 0.88481,-0.97174 1.3219,-1.46242 0.24619,-0.27232 0.48937,-0.54729 0.72803,-0.82624 0.33563,-0.38955 0.67618,-0.77492 1.00313,-1.17186 0.32683,-0.39019 0.65107,-0.78258 0.97207,-1.17757 0.3686,-0.45965 0.73926,-0.91768 1.10661,-1.37833 0.55069,-0.71379 1.10139,-1.42759 1.65209,-2.14139 0.36732,-0.50337 0.73701,-1.00503 1.0965,-1.51406 0.49795,-0.6962 0.98759,-1.39829 1.48163,-2.09727 0.41135,-0.60761 0.82543,-1.2134 1.22932,-1.82603 0.38883,-0.57994 0.76863,-1.16585 1.14177,-1.756 0.33055,-0.52169 0.66054,-1.04381 0.98082,-1.57189 0.4957,-0.81865 0.98558,-1.64092 1.45865,-2.4729 0.3713,-0.65022 0.73936,-1.30229 1.10936,-1.95325 0.37719,-0.71108 0.75595,-1.42137 1.11886,-2.13989 0.27134,-0.53868 0.54356,-1.07696 0.8121,-1.61704 0.27405,-0.56344 0.54943,-1.12624 0.81541,-1.69356 0.24931,-0.52301 0.49263,-1.04886 0.73473,-1.57523 0.20444,-0.45653 0.41404,-0.91078 0.60903,-1.37148 0.27077,-0.62722 0.54326,-1.25371 0.80627,-1.88424 0.40341,-0.96767 0.79602,-1.9398 1.18368,-2.91388 0.33528,-0.91862 0.67057,-1.83724 1.00586,-2.75586 0.241,-0.73054 0.48679,-1.45952 0.72452,-2.19113 0.19043,-0.59379 0.38382,-1.18666 0.5724,-1.78103 0.32576,-1.10149 0.65559,-2.20188 0.96018,-3.30948 0.22442,-0.8021 0.43652,-1.60756 0.64657,-2.41352 0.0874,-0.33972 0.1613,-0.68279 0.24311,-1.02389 0.14435,-0.61671 0.2845,-1.23441 0.42334,-1.85237 0.1086,-0.49524 0.21905,-0.99009 0.3184,-1.4873 0.15196,-0.73091 0.29219,-1.46421 0.42967,-2.19796 0.11037,-0.59807 0.21994,-1.19634 0.32202,-1.79588 0.0859,-0.54408 0.17473,-1.08774 0.25894,-1.63207 0.11343,-0.82495 0.22811,-1.64973 0.33369,-2.47573 0.0734,-0.54295 0.13762,-1.08707 0.19848,-1.63155 0.0779,-0.68181 0.14371,-1.36492 0.20372,-2.04851 0.0502,-0.547 0.0975,-1.09425 0.13919,-1.64196 0.0543,-0.64951 0.0978,-1.29984 0.13631,-1.95045 0.0386,-0.63663 0.0755,-1.2734 0.10106,-1.9107 0.035,-0.82132 0.0494,-1.64331 0.0704,-2.46506 0.009,-0.85448 0.0165,-1.709 0.0169,-2.56353 -0.005,-0.69936 -0.009,-1.39873 -0.0219,-2.09801 -0.008,-0.69197 -0.0315,-1.38367 -0.0552,-2.07525 -0.0183,-0.51193 -0.0571,-1.02284 -0.0876,-1.53412 -0.0417,-0.60131 -0.0799,-1.20288 -0.12371,-1.80402 -0.0574,-0.7362 -0.12583,-1.47146 -0.19808,-2.20634 -0.0869,-0.91741 -0.18521,-1.83371 -0.29476,-2.7487 -0.0457,-0.37664 -0.0831,-0.75436 -0.1412,-1.12938 -0.12048,-0.84908 -0.24584,-1.69745 -0.37179,-2.54573 -0.104,-0.6216 -0.21001,-1.24286 -0.3217,-1.86314 -0.14271,-0.80378 -0.29587,-1.60566 -0.45797,-2.40575 -0.10396,-0.51588 -0.20529,-1.03232 -0.31087,-1.54786 -0.17239,-0.78092 -0.34608,-1.56157 -0.52833,-2.34024 -0.12704,-0.53556 -0.25408,-1.07112 -0.38113,-1.60668 -0.29584,-1.09342 -0.59181,-2.18682 -0.89363,-3.2786 -0.19999,-0.71333 -0.41098,-1.42352 -0.62863,-2.13166 -0.15995,-0.52413 -0.31639,-1.04936 -0.48641,-1.57035 -0.20542,-0.62886 -0.41818,-1.25529 -0.62805,-1.88267 -0.31711,-0.87217 -0.63543,-1.74395 -0.96719,-2.61068 -0.18578,-0.48979 -0.37321,-0.97899 -0.56288,-1.46727 -0.28824,-0.70351 -0.57592,-1.40725 -0.87125,-2.10782 -0.26631,-0.63774 -0.5311,-1.27616 -0.81108,-1.90807 -0.17989,-0.40763 -0.35691,-0.81657 -0.53857,-1.2234 -0.41829,-0.89361 -0.83659,-1.78721 -1.25489,-2.68081 -0.40668,-0.81228 -0.81375,-1.62437 -1.22666,-2.4335 -0.28709,-0.57002 -0.58388,-1.13515 -0.89367,-1.69316 -0.36631,-0.66276 -0.72798,-1.3281 -1.09841,-1.98857 -0.40776,-0.70103 -0.82659,-1.39554 -1.23938,-2.09361 -0.39134,-0.65616 -0.78457,-1.31121 -1.17664,-1.96694 -0.56733,-0.85772 -1.13389,-1.71595 -1.70706,-2.56979 -0.26529,-0.40071 -0.53604,-0.79774 -0.80891,-1.19332 -0.3217,-0.46821 -0.64298,-0.93677 -0.96755,-1.40296 -0.62335,-0.86112 -1.25376,-1.71709 -1.88856,-2.5698 -0.25864,-0.3543 -0.53209,-0.69738 -0.80039,-1.04435 -0.3104,-0.3965 -0.6221,-0.79198 -0.93934,-1.18304 -0.52913,-0.65776 -1.06176,-1.31272 -1.60074,-1.96242 -0.37436,-0.44961 -0.75382,-0.8949 -1.13448,-1.33917 -0.28224,-0.32885 -0.56337,-0.65869 -0.8474,-0.98598 -0.39977,-0.44443 -0.79683,-0.89134 -1.2037,-1.32932 -0.46723,-0.50982 -0.93753,-1.01687 -1.41685,-1.51536 -0.40173,-0.41907 -0.8058,-0.83591 -1.20846,-1.2541 -0.64635,-0.63385 -1.29077,-1.2697 -1.94279,-1.89774 -0.26908,-0.2587 -0.5327,-0.5232 -0.81011,-0.77308 -0.57183,-0.52909 -1.14716,-1.05437 -1.72379,-1.57822 -0.56055,-0.50939 -1.12255,-1.01727 -1.69567,-1.51253 -0.41249,-0.3628 -0.83315,-0.71616 -1.25158,-1.07204 -0.63304,-0.52473 -1.26492,-1.05092 -1.90295,-1.56957 -0.48877,-0.38998 -0.98201,-0.77432 -1.47428,-1.15985 -0.83042,-0.64639 -1.6792,-1.26861 -2.52109,-1.89986 -0.59623,-0.422 -1.19255,-0.84387 -1.79312,-1.259671 -0.50484,-0.352407 -1.00961,-0.705005 -1.52362,-1.043977 -0.62779,-0.418614 -1.25842,-0.832914 -1.89025,-1.245388 -0.70886,-0.452682 -1.42084,-0.900537 -2.1309,-1.351354 -0.55482,-0.33082 -1.10921,-0.662353 -1.66814,-0.986205 -0.47309,-0.278358 -0.95209,-0.546514 -1.42878,-0.818627 -0.52001,-0.289963 -1.03823,-0.583186 -1.56329,-0.863969 -0.47818,-0.25915 -0.95685,-0.517474 -1.4374,-0.772198 -0.81967,-0.42588 -1.64031,-0.849866 -2.46295,-1.269986 -0.31859,-0.16708 -0.64731,-0.313663 -0.971,-0.470404 -0.5632,-0.267729 -1.12736,-0.533512 -1.69311,-0.795783 -0.70388,-0.326483 -1.41785,-0.63051 -2.12812,-0.942668 -0.47762,-0.211251 -0.96033,-0.410695 -1.44168,-0.613224 -0.52462,-0.21803 -1.04994,-0.434336 -1.57771,-0.644658 -0.44854,-0.183601 -0.90423,-0.348952 -1.35634,-0.52345 -0.55118,-0.207023 -1.10227,-0.414272 -1.65636,-0.613393 -0.57045,-0.207139 -1.1419,-0.41159 -1.7137,-0.614911 -0.57825,-0.194317 -1.15578,-0.390833 -1.73686,-0.576571 -0.49902,-0.165636 -1.00262,-0.316845 -1.5052,-0.471204 -0.75439,-0.231223 -1.51192,-0.45197 -2.26874,-0.675093 -0.78132,-0.215284 -1.56201,-0.432956 -2.34373,-0.646769 -0.69337,-0.17764 -1.38673,-0.355279 -2.0801,-0.532918 -0.93884,-0.212947 -1.87813,-0.423909 -2.81838,-0.630585 -0.57064,-0.124637 -1.14164,-0.247906 -1.71356,-0.366469 -0.91891,-0.171207 -1.83983,-0.331471 -2.76077,-0.491364 -0.52976,-0.08767 -1.05932,-0.176689 -1.5905,-0.255459 -0.63178,-0.09758 -1.26425,-0.190821 -1.89822,-0.273106 -0.6134,-0.08068 -1.22781,-0.153547 -1.84161,-0.231064 -0.56622,-0.06105 -1.1322,-0.124441 -1.69856,-0.184073 -0.85634,-0.07797 -1.71268,-0.155931 -2.56902,-0.233896 -0.98058,-0.06064 -1.96089,-0.126084 -2.9418,-0.18112 -1.02033,-0.05255 -2.04104,-0.09829 -3.06213,-0.133527 -2.1816,-0.06869 -4.36324,-0.136217 -6.5449,-0.202931 -0.0723,6.51e-4 -0.14453,0.0013 -0.2168,0.002 z m 8.23242,8.244141 c 1.79885,0.191411 3.59796,0.380349 5.39664,0.573316 0.8414,0.09333 1.68318,0.183581 2.52435,0.278817 0.59693,0.08064 1.19417,0.159052 1.7909,0.241046 0.99174,0.150882 1.98392,0.299045 2.9754,0.451609 0.44943,0.07376 0.89944,0.144259 1.34853,0.219989 0.68392,0.128086 1.36804,0.255122 2.05042,0.391228 0.30274,0.05782 0.60485,0.118713 0.90562,0.186142 0.70618,0.15096 1.41081,0.308986 2.11557,0.466446 0.75969,0.188456 1.51796,0.382633 2.27425,0.58433 0.58672,0.155407 1.17311,0.312161 1.75821,0.473496 0.69155,0.195217 1.38045,0.399615 2.06718,0.61115 0.59142,0.177939 1.1784,0.370159 1.76697,0.557212 0.76225,0.243071 1.51974,0.500777 2.27627,0.760998 0.42738,0.147668 0.85395,0.29758 1.27845,0.453354 0.39541,0.143473 0.7896,0.290385 1.18281,0.439763 0.77017,0.296269 1.54001,0.593488 2.30774,0.896001 0.38835,0.161556 0.77797,0.320149 1.16556,0.483471 0.81078,0.35807 1.62155,0.71614 2.43232,1.07421 0.7011,0.336855 1.40517,0.667577 2.10202,1.013198 0.4525,0.222525 0.90661,0.441833 1.35482,0.672954 0.46616,0.23548 0.92961,0.476326 1.39207,0.718961 0.52135,0.2801 1.04435,0.55717 1.56095,0.84601 0.79714,0.43817 1.58867,0.88648 2.37678,1.34066 0.47905,0.27837 0.95615,0.56001 1.43106,0.84537 0.56438,0.33788 1.12827,0.6767 1.68626,1.02505 0.37903,0.23819 0.75752,0.4772 1.13123,0.72369 0.48488,0.31565 0.96559,0.63768 1.44735,0.95804 0.34815,0.2358 0.69814,0.46893 1.04519,0.70632 0.88789,0.62999 1.77579,1.25999 2.66368,1.88998 0.74874,0.58191 1.49876,1.1622 2.24671,1.74511 0.86318,0.68907 1.7171,1.3896 2.5736,2.08692 0.89115,0.77626 1.77686,1.55886 2.65074,2.35454 0.57792,0.52691 1.15183,1.05822 1.72817,1.58687 0.52398,0.49529 1.03352,1.00549 1.54687,1.51172 0.37764,0.37907 0.7551,0.75833 1.12675,1.1433 0.46081,0.47019 0.91349,0.94826 1.36731,1.42518 0.34543,0.365 0.68815,0.73259 1.02162,1.10859 0.40977,0.45519 0.8172,0.91251 1.2228,1.3714 0.37918,0.44304 0.75948,0.88513 1.13219,1.33365 0.21116,0.24775 0.41601,0.50068 0.61907,0.75509 0.51861,0.6439 1.02958,1.29391 1.5434,1.94162 0.42241,0.53286 0.83853,1.07069 1.24575,1.61525 0.37338,0.49909 0.7439,1.00034 1.11461,1.50142 0.44808,0.61785 0.88751,1.24191 1.32175,1.86956 0.27263,0.39107 0.53934,0.78624 0.80758,1.18033 0.42575,0.63789 0.84437,1.28051 1.25737,1.92673 0.19556,0.30414 0.39192,0.60777 0.57866,0.91745 0.38483,0.62656 0.77147,1.25205 1.14672,1.88442 0.21884,0.36805 0.44414,0.73233 0.65295,1.10625 0.26458,0.46265 0.5289,0.92544 0.78633,1.39212 0.40333,0.71958 0.79783,1.44405 1.18679,2.17148 0.29336,0.54711 0.58671,1.09421 0.88007,1.64131 0.43513,0.91156 0.87289,1.82189 1.30638,2.73422 0.37937,0.8101 0.74464,1.62668 1.11354,2.44156 0.25103,0.5987 0.50409,1.19655 0.74709,1.79857 0.17483,0.42592 0.34692,0.85302 0.51365,1.28217 0.24719,0.64734 0.48378,1.29864 0.7223,1.9492 0.20895,0.58927 0.4237,1.17652 0.62278,1.76924 0.20012,0.57836 0.39091,1.15989 0.5826,1.74108 0.22831,0.72015 0.45603,1.44051 0.67874,2.1624 0.15172,0.51565 0.3048,1.03091 0.44775,1.54909 0.17278,0.61065 0.33658,1.22385 0.49561,1.83821 0.12627,0.50926 0.25529,1.01787 0.37986,1.52753 0.17201,0.76118 0.34609,1.52191 0.51682,2.28337 0.22008,1.03006 0.4162,2.06499 0.61774,3.09878 0.0576,0.28991 0.11345,0.58013 0.15521,0.87283 0.10373,0.65564 0.20762,1.31125 0.30373,1.96806 0.12846,0.84057 0.24438,1.683 0.35672,2.52585 0.0829,0.65794 0.1534,1.31734 0.21887,1.97723 0.0897,0.86519 0.1735,1.73096 0.25612,2.59684 0.0367,0.36778 0.0714,0.73585 0.0888,1.10513 0.0599,0.99611 0.11537,1.99248 0.16484,2.98917 0.0337,0.65503 0.0654,1.31015 0.0976,1.96525 0.0163,0.98503 0.0325,1.97006 0.0488,2.95508 -0.005,0.69791 -0.009,1.39583 -0.0224,2.09364 -0.008,0.47059 -0.0109,0.94142 -0.0314,1.41167 -0.0828,1.36967 -0.17162,2.73896 -0.2646,4.10797 -0.0343,0.47021 -0.0722,0.9402 -0.12312,1.40894 -0.0676,0.65632 -0.13172,1.31304 -0.2014,1.96912 -0.1,0.77939 -0.19883,1.55894 -0.30649,2.33732 -0.0805,0.60737 -0.16955,1.21355 -0.25885,1.81967 -0.0831,0.54593 -0.17282,1.09086 -0.2734,1.63386 -0.13946,0.78599 -0.28645,1.57061 -0.43422,2.35506 -0.0925,0.46504 -0.19942,0.92705 -0.29997,1.39038 -0.12956,0.56626 -0.25654,1.13312 -0.38765,1.699 -0.20369,0.82294 -0.40884,1.64553 -0.62024,2.46651 -0.20532,0.75165 -0.4107,1.50333 -0.62513,2.25244 -0.15846,0.53909 -0.30783,1.08091 -0.47699,1.6168 -0.2568,0.83469 -0.52873,1.66461 -0.79528,2.49622 -0.2243,0.67886 -0.45805,1.35454 -0.69022,2.03073 -0.21775,0.62399 -0.45256,1.24183 -0.68033,1.86219 -0.14678,0.387 -0.28979,0.77548 -0.43889,1.16156 -0.41058,0.99809 -0.82274,1.99563 -1.25423,2.98491 -0.19753,0.45559 -0.39345,0.91197 -0.60627,1.36071 -0.24956,0.53136 -0.49695,1.06376 -0.74785,1.59449 -0.45246,0.92458 -0.90983,1.84675 -1.37011,2.76746 -0.34521,0.68417 -0.71148,1.35743 -1.06794,2.03575 -0.14395,0.26918 -0.28344,0.54084 -0.43019,0.80846 -0.44217,0.75835 -0.88069,1.51884 -1.32528,2.27577 -0.44064,0.74827 -0.88627,1.49362 -1.33799,2.23525 -0.53372,0.87095 -1.10117,1.7205 -1.66195,2.57408 -0.31966,0.48658 -0.64354,0.97034 -0.96882,1.45317 -0.46154,0.64518 -0.92275,1.2906 -1.39021,1.93152 -0.41732,0.57696 -0.8421,1.14853 -1.27003,1.71766 -0.33972,0.44546 -0.67858,0.89168 -1.03103,1.3272 -0.48361,0.60607 -0.96993,1.21002 -1.46234,1.80897 -0.46741,0.5628 -0.93529,1.12531 -1.41179,1.68043 -0.65305,0.73494 -1.31092,1.4656 -1.97568,2.18997 -0.3734,0.40737 -0.74455,0.81685 -1.11933,1.22293 -0.39375,0.41216 -0.78847,0.82345 -1.18947,1.22855 -0.56446,0.56011 -1.12643,1.12273 -1.69701,1.67661 -0.3192,0.31089 -0.63444,0.62589 -0.9614,0.92869 -0.46732,0.44309 -0.94149,0.87889 -1.4166,1.3136 -0.57691,0.52673 -1.15657,1.05052 -1.74425,1.56522 -0.44227,0.39111 -0.88816,0.77808 -1.33282,1.16646 -0.52651,0.4269 -1.05102,0.85629 -1.58332,1.27599 -0.52914,0.42444 -1.06683,0.83804 -1.60148,1.25548 -0.37169,0.28501 -0.74102,0.57318 -1.11413,0.85629 -1.27658,0.92855 -2.56124,1.84595 -3.85127,2.75571 -0.24223,0.17315 -0.497,0.32784 -0.74489,0.49266 -0.88563,0.57087 -1.7736,1.13813 -2.65997,1.70788 -0.25135,0.1647 -0.50645,0.32333 -0.76713,0.47289 -0.61119,0.36327 -1.22657,0.7194 -1.84179,1.07579 -0.6631,0.3801 -1.32693,0.75894 -1.99031,1.13856 -0.93854,0.49611 -1.87729,0.99187 -2.81859,1.48271 -0.4594,0.23328 -0.92074,0.46269 -1.38397,0.68829 -0.72265,0.34028 -1.44713,0.67672 -2.17346,1.00909 -0.76288,0.3509 -1.52967,0.69338 -2.30184,1.0234 -0.95251,0.40678 -1.91227,0.79633 -2.86902,1.193 -0.57625,0.22843 -1.15785,0.44292 -1.74036,0.65478 -0.63554,0.23335 -1.2726,0.46259 -1.91021,0.69018 -0.52148,0.18398 -1.0433,0.36699 -1.56751,0.54309 -0.58186,0.19987 -1.16918,0.38337 -1.75731,0.56382 -0.49254,0.14791 -0.98368,0.30056 -1.4771,0.44542 -0.9678,0.27647 -1.94216,0.52904 -2.91437,0.78937 -0.42394,0.11291 -0.84787,0.22582 -1.27181,0.33873 -1.17138,0.25948 -2.34255,0.52012 -3.51617,0.76927 -0.93818,0.19121 -1.87931,0.36761 -2.82242,0.53275 -0.67702,0.11913 -1.35297,0.24448 -2.03173,0.3535 -0.48386,0.0824 -0.96972,0.15229 -1.45491,0.22629 -0.53462,0.0762 -1.06904,0.15391 -1.60487,0.2213 -0.49025,0.0656 -0.98168,0.1222 -1.47316,0.17769 -0.4998,0.0568 -1.00029,0.1069 -1.50099,0.15505 -0.29174,0.0315 -0.58425,0.054 -0.87694,0.0744 -0.72523,0.0547 -1.45112,0.10007 -2.17724,0.14105 -0.51147,0.0302 -1.02345,0.0508 -1.53522,0.075 -0.84065,0.0333 -1.68187,0.0474 -2.523,0.0621 -0.70375,0.009 -1.40753,0.0192 -2.11133,0.0215 -0.77183,-0.003 -1.54338,-0.0265 -2.31494,-0.0448 -0.71369,-0.0172 -1.42719,-0.0413 -2.14051,-0.0698 -0.50547,-0.0222 -1.01126,-0.0383 -1.5165,-0.0651 -0.89675,-0.0535 -1.79338,-0.1094 -2.68993,-0.16619 -0.379375,-0.0258 -0.758711,-0.0522 -1.137255,-0.0885 -0.47088,-0.0414 -0.940891,-0.0922 -1.410977,-0.14168 -0.650493,-0.0674 -1.299539,-0.14761 -1.949019,-0.22398 -0.715416,-0.0955 -1.430916,-0.19038 -2.145205,-0.29406 -0.548228,-0.0771 -1.095907,-0.15811 -1.643857,-0.23719 -1.055506,-0.19179 -2.110814,-0.38467 -3.166016,-0.57812 -1.070722,-0.22951 -2.140597,-0.46298 -3.208984,-0.70313 -0.763577,-0.18847 -1.522754,-0.39411 -2.283926,-0.59196 -0.490741,-0.12968 -0.983065,-0.25352 -1.470955,-0.39372 -0.48045,-0.13172 -0.956866,-0.27751 -1.434213,-0.41993 -0.685961,-0.20664 -1.371329,-0.41535 -2.054506,-0.63101 -0.71815,-0.22973 -1.435276,-0.46261 -2.15116,-0.69931 -0.28829,-0.0926 -0.569127,-0.2065 -0.853917,-0.30911 -0.757317,-0.27968 -1.514012,-0.56102 -2.268895,-0.84721 -0.468201,-0.17628 -0.937023,-0.35095 -1.401797,-0.53616 -0.825846,-0.32625 -1.646401,-0.66573 -2.469303,-0.99932 -1.115324,-0.52026 -2.231451,-1.03882 -3.346277,-1.56012 -0.877682,-0.42217 -1.751647,-0.85219 -2.617132,-1.29889 -0.725171,-0.37271 -1.449039,-0.74809 -2.168647,-1.1314 -0.584943,-0.32667 -1.16965,-0.65384 -1.750144,-0.98834 -0.586263,-0.344 -1.171738,-0.68933 -1.75413,-1.03986 -0.676447,-0.40391 -1.343102,-0.82397 -2.00635,-1.24914 -0.440659,-0.28022 -0.880874,-0.56113 -1.316854,-0.8486 -0.752543,-0.49739 -1.500073,-1.00243 -2.240751,-1.51733 -0.631309,-0.44408 -1.265953,-0.88345 -1.891359,-1.33585 -0.678032,-0.4825 -1.34418,-0.98143 -2.005752,-1.48618 -0.614806,-0.47095 -1.224072,-0.9491 -1.828257,-1.43359 -0.570019,-0.45562 -1.137993,-0.91379 -1.70716,-1.37047 -0.813892,-0.71215 -1.629099,-1.42283 -2.442177,-2.1359 -0.58879,-0.52832 -1.161449,-1.07423 -1.73981,-1.61387 -0.352759,-0.33134 -0.702185,-0.66624 -1.050918,-1.00181 -0.34532,-0.33706 -0.694527,-0.6702 -1.03129,-1.01589 -0.95332,-0.96078 -1.894961,-1.93307 -2.833461,-2.90831 -0.62582,-0.70221 -1.253506,-1.40276 -1.878169,-2.10599 -0.277066,-0.3164 -0.55567,-0.63148 -0.825174,-0.9544 -0.397988,-0.46686 -0.783605,-0.94407 -1.175701,-1.41586 -0.432618,-0.52448 -0.857575,-1.05523 -1.286971,-1.58234 -0.488801,-0.63121 -0.979532,-1.26093 -1.461831,-1.89714 -0.200416,-0.26375 -0.405207,-0.52425 -0.595553,-0.79547 -0.603382,-0.83397 -1.194712,-1.67658 -1.787404,-2.51816 -0.23531,-0.33868 -0.473754,-0.67524 -0.707148,-1.01521 -0.343344,-0.52051 -0.683707,-1.04295 -1.020409,-1.56778 -0.372382,-0.58329 -0.741886,-1.16846 -1.10468,-1.75776 -0.266666,-0.43992 -0.533677,-0.87964 -0.792223,-1.3244 -0.430363,-0.73139 -0.851008,-1.46846 -1.267552,-2.20778 -0.372912,-0.6599 -0.727469,-1.32991 -1.081323,-2.00015 -0.460991,-0.88412 -0.920259,-1.76918 -1.369055,-2.65958 -0.248458,-0.4844 -0.480288,-0.97704 -0.708729,-1.47112 -0.426913,-0.914 -0.844283,-1.8324 -1.25839,-2.75225 -0.332203,-0.77925 -0.661224,-1.55988 -0.979025,-2.34513 -0.242145,-0.58632 -0.472892,-1.17723 -0.708475,-1.7662 -0.213609,-0.56737 -0.429424,-1.13393 -0.634127,-1.7046 -0.115971,-0.31116 -0.224774,-0.62485 -0.330628,-0.93957 -0.223229,-0.6567 -0.451089,-1.31184 -0.665407,-1.97153 -0.275891,-0.8222 -0.528933,-1.65176 -0.783217,-2.48083 -0.138357,-0.45244 -0.277058,-0.90484 -0.411918,-1.35832 -0.25736,-0.93346 -0.511353,-1.86783 -0.762594,-2.80296 -0.245291,-1.08874 -0.492363,-2.17709 -0.736551,-3.26608 -0.153746,-0.7183 -0.295054,-1.43922 -0.430434,-2.16119 -0.161472,-0.87348 -0.322371,-1.74711 -0.473356,-2.62246 -0.1141398,-0.71981 -0.2271814,-1.43978 -0.3342546,-2.16068 -0.078983,-0.52276 -0.1584035,-1.04549 -0.2255816,-1.56993 -0.076567,-0.59704 -0.1530539,-1.19412 -0.2192421,-1.79241 -0.079524,-0.6686 -0.1401089,-1.33924 -0.2094121,-2.00894 -0.042311,-0.37596 -0.06068,-0.75397 -0.089581,-1.13107 -0.039243,-0.56774 -0.067215,-1.1362 -0.1016622,-1.70425 -0.036626,-0.58239 -0.036341,-1.16619 -0.051038,-1.74937 -0.017145,-0.80549 -0.02865,-1.61109 -0.039641,-2.41668 -0.00543,-0.7282 -0.00883,-1.4564 -0.00722,-2.18462 7.888e-4,-0.50927 0.00424,-1.01856 0.010314,-1.52779 0.013378,-0.86457 0.031206,-1.72909 0.060111,-2.59329 0.020178,-0.63381 0.043272,-1.26751 0.071724,-1.90101 0.026446,-0.51818 0.062663,-1.03586 0.1000268,-1.55336 0.056324,-0.6924 0.1092953,-1.38508 0.1741498,-2.07676 0.028242,-0.33393 0.06064,-0.66746 0.099563,-1.00033 0.071339,-0.63895 0.1486389,-1.27725 0.2297554,-1.91503 0.05909,-0.46331 0.1258511,-0.92554 0.194432,-1.38753 0.062894,-0.42762 0.1283043,-0.8549 0.1951407,-1.28191 0.1142719,-0.65791 0.2259519,-1.31628 0.3486469,-1.97269 0.118006,-0.65801 0.246809,-1.31402 0.373582,-1.97038 0.178247,-0.87486 0.367047,-1.74754 0.561704,-2.61889 0.201566,-0.87757 0.41371,-1.75265 0.621866,-2.62866 0.08822,-0.35462 0.180494,-0.70817 0.278506,-1.06022 0.242017,-0.87369 0.479532,-1.74876 0.738413,-2.61764 0.204004,-0.66926 0.407629,-1.33866 0.615276,-2.0068 0.300987,-0.92217 0.601974,-1.84434 0.902961,-2.76652 0.405599,-1.09309 0.811198,-2.18619 1.216797,-3.27929 0.325521,-0.79232 0.651042,-1.58464 0.976563,-2.37696 0.352344,-0.80119 0.705703,-1.60197 1.066211,-2.39953 0.300486,-0.6621 0.60972,-1.3202 0.923862,-1.97591 0.286378,-0.58738 0.582157,-1.17011 0.876325,-1.75361 0.271557,-0.52785 0.538278,-1.05822 0.819502,-1.58103 0.392945,-0.73661 0.797213,-1.46711 1.196912,-2.20007 0.595323,-1.01227 1.189076,-2.02549 1.788993,-3.03504 0.283655,-0.473 0.567263,-0.9461 0.856455,-1.41571 0.426337,-0.65653 0.850456,-1.31453 1.278166,-1.97015 0.50528,-0.74577 1.01056,-1.49154 1.515839,-2.23731 0.552876,-0.75881 1.104076,-1.51887 1.657987,-2.27693 0.344473,-0.45782 0.688946,-0.91564 1.03342,-1.37346 0.57887,-0.7173 1.156174,-1.4359 1.736011,-2.15241 0.543505,-0.65708 1.094366,-1.30803 1.650396,-1.95454 0.302839,-0.35057 0.609723,-0.69767 0.916917,-1.04443 0.620399,-0.70171 1.257757,-1.38813 1.890035,-2.07908 0.4405,-0.46327 0.882288,-0.92529 1.328454,-1.3831 0.395477,-0.40455 0.796341,-0.80383 1.196721,-1.20353 0.561498,-0.56217 1.132908,-1.1143 1.704806,-1.66585 0.273016,-0.2682 0.549166,-0.5333 0.835647,-0.78716 0.507899,-0.45625 1.013371,-0.91524 1.522774,-1.3698 0.680099,-0.5971 1.363566,-1.1904 2.05205,-1.77781 0.326827,-0.27677 0.656203,-0.55046 0.988847,-0.82021 0.825412,-0.66753 1.66264,-1.32031 2.500537,-1.97205 0.261182,-0.20132 0.519541,-0.40641 0.782424,-0.60545 0.8086,-0.58559 1.620075,-1.16722 2.436976,-1.74118 0.297698,-0.20903 0.593211,-0.42125 0.892239,-0.62834 0.66003,-0.43666 1.317699,-0.87691 1.97924,-1.31126 0.553374,-0.36188 1.10848,-0.72108 1.665927,-1.07665 0.330774,-0.21278 0.66765,-0.41592 1.002889,-0.62155 0.720778,-0.43652 1.447514,-0.86311 2.177268,-1.28444 0.663003,-0.38112 1.328348,-0.75821 1.996563,-1.13012 0.45674,-0.25139 0.914618,-0.50068 1.375375,-0.74464 0.478805,-0.25488 0.96165,-0.502101 1.442122,-0.753818 1.002165,-0.48722 2.005721,-0.971839 3.019665,-1.43418 0.561155,-0.258793 1.128625,-0.50359 1.69268,-0.755957 0.396034,-0.176797 0.79275,-0.352031 1.192519,-0.520249 0.476779,-0.203703 0.954133,-0.406126 1.432786,-0.605367 0.690184,-0.280817 1.380369,-0.561633 2.070553,-0.84245 0.729167,-0.270833 1.458334,-0.541666 2.1875,-0.8125 0.719552,-0.243422 1.438609,-0.488326 2.160648,-0.724309 0.512743,-0.173243 1.030375,-0.331325 1.546384,-0.494441 0.502339,-0.150264 1.002842,-0.306795 1.508201,-0.446746 0.685279,-0.196782 1.372524,-0.386628 2.060075,-0.575264 0.928031,-0.245194 1.858507,-0.48121 2.792623,-0.702163 0.544409,-0.130293 1.090824,-0.252082 1.636889,-0.375209 0.611436,-0.137908 1.224138,-0.27001 1.837291,-0.400046 0.462437,-0.08937 0.926293,-0.171609 1.389267,-0.258276 0.694708,-0.127769 1.390377,-0.250317 2.085847,-0.373844 0.599309,-0.105588 1.20078,-0.198351 1.803282,-0.283718 0.625808,-0.09395 1.2535,-0.17436 1.880665,-0.258562 0.627231,-0.07691 1.255497,-0.144892 1.884203,-0.208545 0.866493,-0.09049 1.734064,-0.170301 2.602291,-0.242237 0.79296,-0.06862 1.58774,-0.113222 2.38255,-0.153934 0.88557,-0.04615 1.77092,-0.0967 2.65693,-0.134161 0.46902,-0.0202 0.93779,-0.04716 1.40722,-0.05638 1.82956,-0.05067 3.65912,-0.101341 5.48869,-0.152011 l 0.0483,0.0019 z m 23.90625,32.142581 c -0.49612,0.0649 -0.99276,0.1261 -1.48748,0.20129 -0.49759,0.0718 -0.99556,0.14197 -1.49007,0.23318 -0.39505,0.0687 -0.78884,0.1442 -1.1826,0.21982 -0.44963,0.1025 -0.89967,0.2032 -1.34695,0.31561 -0.37232,0.0889 -0.74184,0.18913 -1.11148,0.28845 -0.31384,0.0879 -0.62894,0.17144 -0.93973,0.2698 -0.44683,0.13859 -0.88945,0.29044 -1.33307,0.4389 -0.64518,0.22302 -1.28984,0.44809 -1.92565,0.69682 -0.482,0.18415 -0.95829,0.38274 -1.43492,0.58027 -0.31683,0.14011 -0.62621,0.29627 -0.93983,0.44336 -0.65255,0.31261 -1.30136,0.63311 -1.94367,0.9663 -0.25847,0.13956 -0.51206,0.28826 -0.76752,0.43329 -0.33048,0.19511 -0.66226,0.38807 -0.98666,0.59324 -0.38141,0.23181 -0.75432,0.47707 -1.1299,0.7181 -0.25522,0.17046 -0.50859,0.3436 -0.75822,0.52218 -0.38645,0.27764 -0.75999,0.57273 -1.13478,0.86575 -0.34794,0.28247 -0.69658,0.56409 -1.03837,0.85402 -0.43102,0.35923 -0.85132,0.73108 -1.27733,1.0962 -1.59308,1.37914 -3.1758,2.7702 -4.7639,4.15506 -0.63999,0.55891 -1.27998,1.11781 -1.91997,1.67672 -0.51433,0.4095 -1.02865,0.81901 -1.54297,1.22851 -1.02166,0.75081 -2.0425,1.50274 -3.06467,2.25284 -2.08208,1.49617 -4.163023,2.99395 -6.245835,4.4891 -8.492492,6.07644 -16.984432,12.15364 -25.477271,18.22959 -10.889204,7.78422 -21.778762,15.56796 -32.667744,23.35249 -1.248982,0.8979 -2.49914,1.79418 -3.747388,2.69309 -1.988355,1.47541 -3.97671,2.95083 -5.965064,4.42625 -0.170388,0.1804 -0.364886,0.36113 -0.430451,0.60953 -0.05834,0.22322 0.0025,0.46181 0.129669,0.65024 0.139575,0.20205 0.316384,0.37993 0.513378,0.52619 0.168152,0.11933 0.374584,0.19195 0.582325,0.17498 0.245106,-0.0168 0.463148,-0.13995 0.672136,-0.25848 0.248989,-0.13955 0.488332,-0.2955 0.729647,-0.44772 1.471993,-0.96148 2.934747,-1.93698 4.400954,-2.90723 3.161963,-2.09603 6.325083,-4.19032 9.486282,-6.2875 2.805209,-1.86256 5.610692,-3.72471 8.413711,-5.59056 14.560394,-9.68469 29.120584,-19.36969 43.680102,-29.0557 1.894525,-1.26031 3.789049,-2.52062 5.683579,-3.78094 0.21283,-0.0121 0.43294,0.0975 0.5426,0.28163 0.11277,0.19426 0.10955,0.43113 0.0985,0.64894 -0.0544,0.9441 -0.11683,1.88773 -0.1745,2.83163 -0.21477,3.44516 -0.42953,6.89031 -0.6443,10.33546 -0.0231,0.2574 -0.0755,0.5123 -0.15625,0.75781 -0.0884,0.25997 -0.18804,0.5167 -0.3125,0.76172 -0.14254,0.26518 -0.32149,0.50922 -0.52328,0.73225 -0.18132,0.20874 -0.36213,0.41895 -0.56923,0.60297 -0.36018,0.33512 -0.71823,0.67255 -1.085064,1.00043 -0.906751,0.82338 -1.822645,1.63663 -2.743718,2.44394 -1.982993,1.74418 -3.965691,3.48868 -5.951598,5.22954 -7.174853,6.29534 -14.348878,12.59162 -21.524273,18.88634 -12.477803,10.94434 -24.95764,21.88637 -37.43682,32.82914 -0.140411,0.21998 -0.329709,0.48779 -0.210938,0.75781 0.112923,0.21136 0.335397,0.32751 0.509857,0.48153 0.205484,0.14808 0.41867,0.30264 0.670027,0.35968 0.217334,0.056 0.449251,0.0551 0.666233,-0.002 0.220695,-0.0639 0.422164,-0.17953 0.613982,-0.30361 0.2448,-0.16096 0.484882,-0.32891 0.721174,-0.50209 0.292321,-0.22025 0.588241,-0.43581 0.873056,-0.66583 0.650489,-0.51389 1.292161,-1.03881 1.938485,-1.55791 0.928765,-0.74944 1.859213,-1.4968 2.783412,-2.25188 6.936914,-5.64482 13.874544,-11.28876 20.811003,-16.93414 13.766497,-11.21051 27.532993,-22.42102 41.299492,-33.63153 0.20362,-0.14201 0.40195,-0.31865 0.65506,-0.36046 0.28401,-0.0547 0.55374,0.13777 0.68804,0.37663 0.25922,0.41354 0.52615,0.82229 0.78257,1.23762 1.04174,1.66402 2.08266,3.32855 3.12534,4.99198 0.2443,0.39263 0.5047,0.77483 0.7568,1.16243 0.16103,0.24706 0.33003,0.48851 0.50857,0.72325 0.1915,0.25925 0.38432,0.51761 0.58036,0.77341 0.34486,0.42913 0.69099,0.85722 1.03802,1.28459 0.4115,0.47513 0.8293,0.94476 1.25391,1.40821 0.47994,0.50938 0.9674,1.01166 1.46036,1.50843 0.43814,0.42853 0.87312,0.86076 1.33133,1.26806 0.25693,0.2301 0.51387,0.4602 0.77081,0.6903 0.35363,0.29521 0.72241,0.57138 1.08789,0.85157 0.39639,0.2928 0.79747,0.57923 1.20502,0.85632 0.8967,0.61823 1.79829,1.22938 2.70686,1.83004 1.09111,0.72222 2.18484,1.44047 3.28005,2.15647 0.2008,0.14001 0.41992,0.26463 0.58113,0.45221 0.15268,0.16392 0.21988,0.40011 0.16731,0.61893 -0.0496,0.24355 -0.22392,0.43043 -0.36668,0.62433 -0.21442,0.27815 -0.43715,0.54966 -0.66071,0.82046 -1.30619,1.59546 -2.63144,3.17515 -3.95043,4.76 -1.34362,1.61264 -2.69311,3.22038 -4.03935,4.83084 -3.40337,4.06897 -6.81199,8.13354 -10.2181,12.20021 -2.8953,3.45605 -5.79033,6.91232 -8.688242,10.36617 -3.991905,4.75968 -7.983334,9.51976 -11.975842,14.27894 -0.147255,0.21387 -0.294335,0.42836 -0.416015,0.6582 -0.05273,0.0996 -0.105469,0.19922 -0.158203,0.29883 0.08432,0.23765 0.203949,0.46386 0.36985,0.65495 0.181052,0.20314 0.384064,0.38785 0.610278,0.53969 0.09356,0.0645 0.190585,0.12377 0.285496,0.18622 0.24653,-0.0795 0.486715,-0.17793 0.71875,-0.29297 0.222444,-0.17099 0.433545,-0.3572 0.628879,-0.55863 0.490482,-0.51638 0.967217,-1.04555 1.450366,-1.56875 1.390651,-1.51127 2.775337,-3.02802 4.160637,-4.5442 0.983049,-1.07741 1.969286,-2.15192 2.946914,-3.23426 11.394112,-12.5724 22.788232,-25.14481 34.182342,-37.71721 0.20157,-0.16332 0.42757,-0.29179 0.64649,-0.42968 0.25127,-0.0685 0.50727,-0.11949 0.76562,-0.15235 1.20879,-0.0295 2.41757,-0.0596 3.62651,-0.0827 1.50012,-0.031 3.0003,-0.0594 4.50045,-0.0892 0.75279,-0.0376 1.50408,-0.099 2.25586,-0.15235 0.96885,-0.0874 1.93664,-0.18597 2.90408,-0.28782 1.11769,-0.1166 2.23527,-0.23444 3.35192,-0.36073 0.63667,-0.0709 1.27334,-0.14185 1.91001,-0.21277 0.22058,-0.0223 0.46444,0.0576 0.59486,0.24419 0.13259,0.20026 0.0526,0.4619 -0.0597,0.65229 -0.22747,0.35119 -0.46489,0.69585 -0.69705,1.04395 -0.85171,1.25966 -1.71284,2.51292 -2.56914,3.76946 -1.81866,2.66335 -3.64176,5.32367 -5.46151,7.98629 -5.29211,7.73798 -10.58315,15.47671 -15.87759,23.21311 -1.08854,1.59476 -2.18635,3.18317 -3.28039,4.77415 -8.25069,11.98725 -16.50171,23.97426 -24.752995,35.96109 -0.07785,0.24711 -0.145824,0.49794 -0.1875,0.7539 -0.0046,0.0846 -0.0091,0.16927 -0.01367,0.25391 0.245231,0.25205 0.485943,0.50988 0.757611,0.73416 0.183453,0.15386 0.38474,0.30554 0.625299,0.3518 0.09625,0.022 0.19333,0.0398 0.290918,0.0547 0.733439,-0.93036 1.468907,-1.85916 2.201087,-2.7905 0.55095,-0.72324 1.094,-1.45243 1.63299,-2.18461 1.4379,-1.94587 2.87642,-3.89129 4.31053,-5.83995 2.81466,-3.82062 5.63089,-7.64008 8.44449,-11.46148 7.30822,-9.93164 14.6172,-19.86271 21.92492,-29.79471 6.91655,-9.40399 13.8331,-18.80797 20.74965,-28.21195 3.08464,-3.97721 6.16927,-7.95443 9.25391,-11.93164 0.6263,-1.01953 1.2526,-2.03906 1.87891,-3.05859 0.4375,-0.75651 0.875,-1.51302 1.3125,-2.26953 0.18815,-0.35157 0.3763,-0.70313 0.56445,-1.05469 0.28516,-0.61914 0.57031,-1.23828 0.85547,-1.85742 0.16045,-0.38027 0.32227,-0.75998 0.47346,-1.14405 0.15483,-0.37897 0.2923,-0.7647 0.43865,-1.14697 0.11067,-0.29883 0.22135,-0.59766 0.33203,-0.89648 0.16892,-0.54305 0.3361,-1.08662 0.49717,-1.63205 0.12359,-0.41712 0.23596,-0.83748 0.35244,-1.25663 0.14054,-0.63827 0.2812,-1.27659 0.41295,-1.91672 0.056,-0.2985 0.10792,-0.59768 0.15299,-0.89802 0.0769,-0.48586 0.11031,-0.97699 0.15476,-1.46651 0.0357,-0.44873 0.0623,-0.89817 0.0777,-1.34808 0.0273,-0.65674 0.0233,-1.31422 0.0292,-1.97138 -0.004,-0.99089 -0.0418,-1.98121 -0.0717,-2.97155 -0.0285,-0.70074 -0.0616,-1.40136 -0.10677,-2.10124 -0.0144,-0.30305 -0.0532,-0.60392 -0.0862,-0.90531 -0.0419,-0.37534 -0.0856,-0.75055 -0.13235,-1.1253 -0.0548,-0.37702 -0.10671,-0.75474 -0.18441,-1.12792 -0.13503,-0.65819 -0.2667,-1.31742 -0.43187,-1.9689 -0.14264,-0.58326 -0.31544,-1.15852 -0.49196,-1.73227 -0.0916,-0.27957 -0.18887,-0.55716 -0.29271,-0.83243 -0.16096,-0.41807 -0.33038,-0.83288 -0.51059,-1.24305 -0.28946,-0.66716 -0.59319,-1.32811 -0.90693,-1.98419 -0.21379,-0.44178 -0.42916,-0.88283 -0.65017,-1.32103 -0.27983,-0.53437 -0.56338,-1.06686 -0.8552,-1.59477 -0.27525,-0.48107 -0.56449,-0.95392 -0.8469,-1.43078 -0.35165,-0.52564 -0.69775,-1.05525 -1.0686,-1.5677 -0.26236,-0.35751 -0.5227,-0.7169 -0.80367,-1.0602 -0.28192,-0.34871 -0.56577,-0.69586 -0.84843,-1.04397 -0.37334,-0.41745 -0.7438,-0.83749 -1.12439,-1.24838 -0.20282,-0.2236 -0.40654,-0.44633 -0.62248,-0.65743 -0.41582,-0.41874 -0.83594,-0.83321 -1.26094,-1.24263 -0.4026,-0.36082 -0.80724,-0.71933 -1.21544,-1.07381 -0.32628,-0.28441 -0.65082,-0.57115 -0.99159,-0.8383 -0.32467,-0.26147 -0.64762,-0.52545 -0.98641,-0.76865 -0.33566,-0.24408 -0.6715,-0.48812 -1.01382,-0.72279 -0.46598,-0.31328 -0.93241,-0.62621 -1.4084,-0.92413 -0.4011,-0.24526 -0.8106,-0.47628 -1.21742,-0.71183 -0.44399,-0.25785 -0.9025,-0.48928 -1.35612,-0.72947 -0.26151,-0.14525 -0.53258,-0.2708 -0.80697,-0.38954 -0.71527,-0.31929 -1.42791,-0.64521 -2.15512,-0.93675 -0.46805,-0.19456 -0.94149,-0.37611 -1.42074,-0.54122 -0.37736,-0.13174 -0.75357,-0.26686 -1.13475,-0.3873 -0.28839,-0.0941 -0.57554,-0.19216 -0.86889,-0.26997 -0.54609,-0.15574 -1.09266,-0.30983 -1.63918,-0.46405 -0.41678,-0.0971 -0.83301,-0.19675 -1.25222,-0.28307 -0.51947,-0.11362 -1.04166,-0.21523 -1.5672,-0.29661 -0.40174,-0.0672 -0.80448,-0.12837 -1.20819,-0.18247 -0.40101,-0.0519 -0.80385,-0.0882 -1.20612,-0.12871 -0.66694,-0.0596 -1.33481,-0.10827 -2.00312,-0.14953 -0.35346,-0.0218 -0.70723,-0.0389 -1.06099,-0.055 -0.39581,-0.0149 -0.7916,-0.0304 -1.18769,-0.0354 -0.36217,-0.009 -0.72448,-0.007 -1.08673,-0.01 -0.19662,0.0221 -0.39323,0.0443 -0.58985,0.0664 z m 7.89844,3.57226 c 0.99341,0.12222 1.98653,0.24743 2.97748,0.38832 0.39518,0.0627 0.79151,0.11868 1.18451,0.19436 0.30601,0.0551 0.61153,0.11324 0.91655,0.1736 0.54348,0.11705 1.08696,0.2341 1.63045,0.35114 0.52209,0.13383 1.04477,0.26597 1.5625,0.41602 0.32792,0.1043 0.65257,0.21861 0.97691,0.33343 0.29068,0.1058 0.57376,0.23085 0.85902,0.35016 0.38417,0.17769 0.76621,0.36026 1.1403,0.55843 0.32892,0.17104 0.65787,0.34227 0.98307,0.52027 0.43491,0.24194 0.862,0.49763 1.2888,0.75349 0.26621,0.16595 0.53451,0.32863 0.79443,0.50442 0.38853,0.25462 0.76998,0.51982 1.14834,0.78926 0.2285,0.16771 0.46036,0.33124 0.68266,0.50717 0.3527,0.27922 0.7054,0.55844 1.05811,0.83767 0.3612,0.32348 0.7243,0.64486 1.07918,0.97531 0.27584,0.25266 0.55242,0.50479 0.81352,0.77286 0.23662,0.23663 0.46979,0.47666 0.70495,0.71472 0.34548,0.37472 0.68869,0.75169 1.01829,1.14053 0.4001,0.46444 0.78506,0.94163 1.17312,1.41611 0.22618,0.3099 0.45422,0.61848 0.67175,0.93458 0.26745,0.38033 0.52862,0.76504 0.79309,1.14745 0.21229,0.33656 0.42311,0.67402 0.62715,1.01566 0.15136,0.25313 0.2948,0.51104 0.43861,0.76854 0.23308,0.4261 0.46228,0.85431 0.69206,1.28221 0.17345,0.35871 0.3427,0.71939 0.50781,1.08203 0.20195,0.47907 0.4005,0.95954 0.5957,1.4414 0.16297,0.42455 0.30506,0.85659 0.45117,1.28711 0.14281,0.44491 0.28539,0.89011 0.40654,1.34151 0.0997,0.37064 0.19716,0.74193 0.29251,1.11372 0.13281,0.52736 0.25406,1.05781 0.35242,1.59274 0.0633,0.35098 0.12545,0.70238 0.16771,1.05663 0.049,0.36955 0.0994,0.7391 0.12847,1.11089 0.0323,0.40347 0.0584,0.80747 0.0778,1.21176 0.0221,0.55176 0.0263,1.104 0.04,1.656 0.01,0.30465 0.009,0.60934 0.003,0.91406 -0.01,0.73059 -0.0183,1.46123 -0.0367,2.19165 -0.0225,0.62469 -0.047,1.24934 -0.0803,1.87354 -0.0288,0.40158 -0.0493,0.80402 -0.0938,1.20426 -0.0888,0.71524 -0.17982,1.43022 -0.2695,2.14535 -0.10017,0.60398 -0.19993,1.20891 -0.34715,1.80359 -0.10766,0.4611 -0.22483,0.91994 -0.35362,1.3756 -0.18768,0.61051 -0.38083,1.21939 -0.57266,1.82862 -0.23763,0.68555 -0.47526,1.3711 -0.71289,2.05665 -0.24389,0.63858 -0.48381,1.27881 -0.7461,1.91015 -0.1276,0.31055 -0.25521,0.62109 -0.38281,0.93164 -0.11375,0.23238 -0.21814,0.47135 -0.37109,0.68164 -0.14081,0.1736 -0.35181,0.27573 -0.56666,0.32338 -0.26238,0.0513 -0.5288,0.0809 -0.79272,0.12389 -0.44399,0.0632 -0.88935,0.11739 -1.33203,0.18945 -0.271,0.0601 -0.54319,0.12641 -0.79482,0.24659 -0.22941,0.11511 -0.4499,0.25079 -0.64567,0.41749 -0.21451,0.17504 -0.40526,0.37673 -0.59616,0.57663 -0.28489,0.30327 -0.56279,0.61302 -0.84223,0.92129 -0.28126,0.31493 -0.56411,0.62846 -0.83774,0.95008 -0.65935,0.76094 -1.30408,1.53436 -1.9533,2.30394 -1.86393,2.29101 -3.72787,4.58203 -5.5918,6.87304 -0.17149,0.20778 -0.37058,0.38983 -0.5625,0.57813 -0.278,0.21292 -0.55247,0.43293 -0.85696,0.60767 -0.23952,0.14263 -0.49017,0.26613 -0.74334,0.38237 -0.25738,0.11146 -0.52078,0.20885 -0.78391,0.30577 -0.39786,0.14348 -0.8029,0.2657 -1.20719,0.38944 -0.43653,0.12728 -0.87556,0.24636 -1.31728,0.35422 -0.51379,0.11897 -1.02748,0.24049 -1.54763,0.32886 -0.52267,0.0954 -1.04654,0.18411 -1.57094,0.26945 -0.632,0.10269 -1.26905,0.16905 -1.90439,0.24698 -0.52978,0.0445 -1.05948,0.091 -1.59049,0.11846 -0.32224,0.0187 -0.64518,0.0215 -0.9677,0.0337 -0.6921,0.0169 -1.38434,0.0258 -2.07657,0.0353 -0.40917,-0.0236 -0.81861,-0.0431 -1.22702,-0.0781 -0.57073,-0.0408 -1.14042,-0.0949 -1.70884,-0.1604 -0.30177,-0.0361 -0.60447,-0.0669 -0.90462,-0.11501 -0.48605,-0.0787 -0.97201,-0.15793 -1.45656,-0.24554 -0.40184,-0.0657 -0.79955,-0.15341 -1.19711,-0.24083 -0.38672,-0.0935 -0.7757,-0.17805 -1.15933,-0.2839 -0.46273,-0.12472 -0.92262,-0.25994 -1.38181,-0.39709 -0.29094,-0.0877 -0.58167,-0.17606 -0.86863,-0.2762 -0.59964,-0.20455 -1.19379,-0.42484 -1.79049,-0.6378 -0.28557,-0.10837 -0.56344,-0.23641 -0.8459,-0.35273 -0.27718,-0.12024 -0.55957,-0.2289 -0.83039,-0.36327 -0.48516,-0.23097 -0.97032,-0.46194 -1.45548,-0.69292 -0.49821,-0.26805 -0.99376,-0.54111 -1.48297,-0.8253 -0.44862,-0.25507 -0.89411,-0.51572 -1.33287,-0.78745 -0.3367,-0.20552 -0.66762,-0.42036 -0.99938,-0.63373 -0.30651,-0.20192 -0.61537,-0.40035 -0.91545,-0.61183 -0.3861,-0.27259 -0.76695,-0.55258 -1.15019,-0.82919 -0.51,-0.41338 -1.01987,-0.82701 -1.52492,-1.24641 -0.31033,-0.26286 -0.60438,-0.54405 -0.90476,-0.81804 -0.33607,-0.32941 -0.66729,-0.66378 -0.98952,-1.00677 -0.40902,-0.43399 -0.80379,-0.8811 -1.20384,-1.32331 -0.33609,-0.38608 -0.67675,-0.76829 -1.00084,-1.1646 -0.35986,-0.43561 -0.70908,-0.87985 -1.06362,-1.31977 -0.40926,-0.5346 -0.81708,-1.0703 -1.22014,-1.6096 -0.32573,-0.43238 -0.62852,-0.8814 -0.92944,-1.33123 -0.1566,-0.23339 -0.30579,-0.4715 -0.45198,-0.71152 -0.15834,-0.27155 -0.3145,-0.54446 -0.46142,-0.82238 -0.13218,-0.24803 -0.24056,-0.5074 -0.35108,-0.76551 -0.15348,-0.38202 -0.30407,-0.76543 -0.43522,-1.15579 -0.12335,-0.36266 -0.2398,-0.72768 -0.3508,-1.09431 -0.0837,-0.2751 -0.1485,-0.56382 -0.13379,-0.85278 0.0216,-0.24554 0.12033,-0.47671 0.24177,-0.68847 0.1274,-0.22332 0.2956,-0.42027 0.47101,-0.60708 0.20753,-0.20687 0.43238,-0.39522 0.64838,-0.59303 0.53497,-0.46852 1.07599,-0.93018 1.62358,-1.3839 0.72986,-0.60361 1.46515,-1.20063 2.20621,-1.79044 1.35271,-1.08305 2.71215,-2.15766 4.06817,-3.23656 1.82772,-1.45125 3.65669,-2.90093 5.48491,-4.35154 0.21662,-0.17526 0.41466,-0.37154 0.61719,-0.5625 0.18499,-0.18321 0.34629,-0.38777 0.50976,-0.58985 0.14738,-0.2212 0.29922,-0.4403 0.41993,-0.67773 0.10966,-0.23522 0.19268,-0.48197 0.25976,-0.73242 0.0587,-0.25381 0.0868,-0.51331 0.1014,-0.77308 0.0107,-0.28133 0.002,-0.56411 -0.046,-0.84203 -0.0431,-0.29534 -0.12283,-0.58748 -0.25617,-0.85515 -0.12827,-0.2538 -0.31346,-0.47671 -0.53163,-0.6583 -0.20191,-0.17434 -0.43518,-0.30912 -0.67867,-0.41653 -0.25732,-0.11235 -0.5333,-0.17871 -0.81157,-0.21272 -0.27394,-0.0254 -0.55117,-0.0148 -0.82213,0.0329 -0.27586,0.0485 -0.54239,0.1419 -0.7935,0.26524 -0.25971,0.12672 -0.51466,0.26318 -0.76586,0.40605 -0.65713,0.37222 -1.30736,0.75648 -1.96124,1.13436 -0.8743,0.50778 -1.7458,1.0204 -2.62121,1.52625 -0.27429,0.15599 -0.54673,0.31533 -0.82648,0.46145 -0.2594,0.13945 -0.52756,0.26384 -0.80412,0.36529 -0.26641,0.0909 -0.53532,0.17664 -0.80975,0.24007 -0.27399,0.0607 -0.55561,0.0868 -0.83597,0.0705 -0.25076,-0.0161 -0.50202,-0.057 -0.73919,-0.14181 -0.21937,-0.0746 -0.43463,-0.17586 -0.60453,-0.33693 -0.20794,-0.20176 -0.33049,-0.48356 -0.35567,-0.77071 -0.0323,-0.24908 -0.0247,-0.50161 -0.006,-0.7515 0.0245,-0.29538 0.0435,-0.59234 0.0962,-0.88427 0.0502,-0.29891 0.11685,-0.59486 0.19201,-0.88842 0.0732,-0.27309 0.15918,-0.54273 0.25197,-0.80976 0.0916,-0.27466 0.19455,-0.54535 0.31233,-0.80987 0.10553,-0.25672 0.22552,-0.50691 0.34498,-0.75734 0.27371,-0.57455 0.55338,-1.1463 0.84482,-1.71209 0.17022,-0.3336 0.34043,-0.6672 0.51065,-1.0008 0.29021,-0.50945 0.58135,-1.0184 0.87867,-1.52373 0.18994,-0.311 0.37619,-0.62431 0.57646,-0.92884 0.30539,-0.47856 0.62249,-0.94951 0.93354,-1.42439 0.20606,-0.29785 0.4113,-0.59628 0.6262,-0.88788 0.19154,-0.26952 0.40125,-0.52545 0.6016,-0.78838 0.2575,-0.3306 0.50734,-0.66782 0.7879,-0.97961 0.36756,-0.41913 0.74163,-0.83248 1.11711,-1.24452 0.26728,-0.27773 0.53287,-0.55712 0.80781,-0.82734 0.45992,-0.46202 0.92674,-0.91767 1.41596,-1.34879 0.30687,-0.27345 0.61313,-0.54772 0.92488,-0.81557 0.31374,-0.26032 0.62947,-0.5182 0.94895,-0.77147 0.31852,-0.25157 0.63372,-0.50753 0.96016,-0.74884 0.24158,-0.18477 0.48781,-0.36319 0.73622,-0.53865 0.28985,-0.20929 0.58389,-0.4127 0.88396,-0.60709 0.34128,-0.22688 0.6868,-0.4472 1.033,-0.66647 0.29294,-0.17183 0.58301,-0.34867 0.88167,-0.51054 0.24156,-0.13456 0.48282,-0.26996 0.72812,-0.39755 0.5439,-0.26955 1.09356,-0.52724 1.64021,-0.79112 0.36291,-0.16359 0.72744,-0.32347 1.09422,-0.4782 0.31716,-0.12557 0.63466,-0.25058 0.95349,-0.3719 0.42956,-0.16025 0.85923,-0.32022 1.29193,-0.47187 0.57987,-0.20965 1.17322,-0.37837 1.76192,-0.56085 0.45328,-0.1268 0.90635,-0.25463 1.36146,-0.37467 0.38757,-0.095 0.77554,-0.18825 1.16545,-0.27323 0.36775,-0.0816 0.73652,-0.15878 1.10566,-0.2338 0.29518,-0.0553 0.58778,-0.12565 0.8861,-0.1625 0.42395,-0.0631 0.84874,-0.11996 1.27395,-0.17371 0.31428,-0.0407 0.62904,-0.0782 0.945,-0.10321 0.71083,-0.0635 1.42381,-0.0978 2.13675,-0.12704 0.33202,-0.0144 0.6645,-0.013 0.99672,-0.0206 0.0495,0.002 0.099,0.004 0.14844,0.006 z m -2.99023,10.5 c -0.33475,0.0185 -0.66714,0.0634 -1,0.10156 -0.66021,0.10246 -1.32012,0.20684 -1.97911,0.31691 -0.28155,0.0467 -0.56196,0.10091 -0.84079,0.16176 -0.27258,0.063 -0.54413,0.13093 -0.81436,0.20336 -0.27811,0.0717 -0.55113,0.16068 -0.82473,0.24766 -0.39012,0.13183 -0.7813,0.26113 -1.16601,0.40821 -0.2906,0.12559 -0.58337,0.24655 -0.86769,0.38606 -0.33626,0.16068 -0.66629,0.33406 -0.99559,0.50847 -0.54279,0.30103 -1.08773,0.59841 -1.6211,0.91601 -0.25344,0.16102 -0.50073,0.34122 -0.69505,0.57219 -0.17244,0.21785 -0.32255,0.45647 -0.42618,0.71501 -0.10026,0.23859 -0.1627,0.49236 -0.19253,0.74917 -0.0396,0.29274 -0.0315,0.58946 0.009,0.8816 0.0535,0.34907 0.14678,0.69025 0.22258,1.03481 0.0727,0.32077 0.15038,0.64051 0.22014,0.96191 0.049,0.24262 0.0796,0.48881 0.0964,0.7357 -0.003,0.27309 -0.0296,0.54573 -0.0781,0.81446 -0.0574,0.28694 -0.13781,0.56916 -0.2453,0.84144 -0.11324,0.27234 -0.22977,0.54352 -0.35315,0.81149 -0.11164,0.2608 -0.24911,0.50914 -0.37959,0.76073 -0.13592,0.25755 -0.27514,0.5132 -0.43381,0.75763 -0.20419,0.33071 -0.41684,0.65614 -0.63307,0.9791 -0.1665,0.24081 -0.3399,0.47653 -0.52091,0.70664 -0.29014,0.36703 -0.58825,0.72778 -0.89634,1.07992 -0.5081,0.58366 -1.02686,1.15789 -1.54896,1.72902 -1.1049,1.21268 -2.21761,2.41821 -3.32676,3.627 -0.17264,0.19363 -0.3165,0.41034 -0.45285,0.63042 -0.0753,0.24954 -0.136,0.50675 -0.14169,0.76843 -0.0169,0.37163 0.003,0.74343 0.0164,1.11482 0.0204,0.30068 0.0488,0.60072 0.0889,0.89944 0.0527,0.38589 0.11466,0.7705 0.18862,1.1529 0.048,0.27338 0.10829,0.54431 0.17748,0.81307 0.068,0.28218 0.14434,0.56235 0.22789,0.84029 0.10045,0.32778 0.2243,0.64772 0.34057,0.97008 0.10743,0.26934 0.22201,0.53598 0.3459,0.79818 0.14713,0.31591 0.30222,0.62825 0.4666,0.93554 0.13851,0.25065 0.28073,0.49935 0.42709,0.7455 0.14804,0.25251 0.30851,0.49723 0.47101,0.74059 0.22092,0.33028 0.44262,0.66012 0.67768,0.98058 0.32484,0.42414 0.65139,0.84734 0.99754,1.25448 0.17645,0.21469 0.36788,0.41646 0.55725,0.61968 0.20911,0.22496 0.42083,0.44774 0.64601,0.65681 0.22733,0.21269 0.45102,0.42945 0.68715,0.63249 0.21024,0.19313 0.43438,0.37002 0.66323,0.54044 0.23884,0.17475 0.47599,0.35191 0.72284,0.51533 0.36487,0.25384 0.74938,0.47751 1.13067,0.70538 0.26305,0.15291 0.53497,0.28982 0.80956,0.42062 0.27202,0.12614 0.54627,0.24752 0.82104,0.36748 0.26264,0.11287 0.52901,0.21636 0.79714,0.31541 0.34673,0.11808 0.69077,0.24435 1.04197,0.34884 0.28696,0.089 0.57712,0.16685 0.86814,0.24138 0.51479,0.13561 1.03351,0.25559 1.55278,0.37267 0.2973,0.0586 0.59566,0.11163 0.8956,0.15485 0.33581,0.0449 0.67134,0.0922 1.00844,0.12678 0.27287,0.0356 0.54758,0.052 0.82198,0.0707 0.3129,0.0191 0.62609,0.0349 0.93953,0.0402 0.49309,0.003 0.98611,-0.008 1.47898,-0.0215 0.43253,-0.0319 0.86398,-0.0765 1.29446,-0.12907 0.33177,-0.038 0.66287,-0.0822 0.99348,-0.12888 0.47895,-0.0777 0.95666,-0.16304 1.43191,-0.26087 0.31119,-0.0648 0.62508,-0.11738 0.93323,-0.19603 0.27045,-0.0662 0.54164,-0.13107 0.80735,-0.21469 0.38623,-0.1149 0.76583,-0.25057 1.14699,-0.38101 0.28563,-0.10592 0.56909,-0.21728 0.84871,-0.33827 0.26553,-0.11606 0.52907,-0.23655 0.78865,-0.36546 0.25322,-0.12313 0.50224,-0.25504 0.74937,-0.38996 0.2426,-0.1334 0.48415,-0.26946 0.71781,-0.41802 0.25294,-0.16314 0.5053,-0.32714 0.75049,-0.50183 0.24876,-0.17184 0.49342,-0.34966 0.73541,-0.53089 0.27976,-0.21283 0.55367,-0.43334 0.82626,-0.65523 0.23285,-0.18621 0.45588,-0.38396 0.679,-0.58159 0.33481,-0.30091 0.67082,-0.60085 0.99081,-0.91765 0.25523,-0.2479 0.50689,-0.49945 0.75724,-0.75227 0.30242,-0.32904 0.59367,-0.66803 0.89063,-1.00195 0.23193,-0.27614 0.45009,-0.56349 0.67019,-0.84905 0.17204,-0.2211 0.3332,-0.45065 0.48725,-0.68457 0.22924,-0.34995 0.45583,-0.70172 0.67051,-1.06085 0.1462,-0.24878 0.28673,-0.50102 0.42414,-0.75479 0.13383,-0.24873 0.27161,-0.49569 0.39461,-0.74997 0.16767,-0.34927 0.32261,-0.70445 0.47953,-1.05861 0.16273,-0.37273 0.30108,-0.75531 0.44603,-1.13513 0.11726,-0.32601 0.21944,-0.65718 0.32578,-0.98685 0.0884,-0.2644 0.15899,-0.53403 0.22732,-0.80418 0.1301,-0.49354 0.22999,-0.99436 0.32266,-1.49609 0.0495,-0.28448 0.0995,-0.56913 0.13014,-0.85642 0.0343,-0.28811 0.0641,-0.57694 0.0787,-0.8668 0.0215,-0.34318 0.0294,-0.68705 0.0404,-1.03068 0.004,-0.29484 0.004,-0.58967 -0.002,-0.88449 -0.004,-0.28375 -0.018,-0.56731 -0.0309,-0.85076 -0.0212,-0.43409 -0.0562,-0.86736 -0.0981,-1.2999 -0.0395,-0.3422 -0.0852,-0.68371 -0.13713,-1.02423 -0.0496,-0.29639 -0.10067,-0.59251 -0.16837,-0.88541 -0.0639,-0.29862 -0.13719,-0.59528 -0.21471,-0.89062 -0.10154,-0.38949 -0.22145,-0.77383 -0.34677,-1.15624 -0.0913,-0.26565 -0.18375,-0.53107 -0.28592,-0.79278 -0.10115,-0.26012 -0.19768,-0.52231 -0.30814,-0.77863 -0.1467,-0.33281 -0.29198,-0.66656 -0.46051,-0.9891 -0.14268,-0.27864 -0.29263,-0.55343 -0.44895,-0.82466 -0.17133,-0.29898 -0.34437,-0.59733 -0.53577,-0.88403 -0.22319,-0.35006 -0.46244,-0.68961 -0.71366,-1.02008 -0.16619,-0.22101 -0.3359,-0.43961 -0.51172,-0.65306 -0.26339,-0.32023 -0.53364,-0.63503 -0.81593,-0.93876 -0.23068,-0.24385 -0.46853,-0.48088 -0.71453,-0.70928 -0.29731,-0.25923 -0.58984,-0.5242 -0.89357,-0.77589 -0.27715,-0.21653 -0.55243,-0.4355 -0.83628,-0.64327 -0.39165,-0.29464 -0.78691,-0.5846 -1.19192,-0.86067 -0.30793,-0.21344 -0.62039,-0.42036 -0.9385,-0.61833 -0.23418,-0.14062 -0.47013,-0.27892 -0.71168,-0.40662 -0.29075,-0.159 -0.60278,-0.27247 -0.90852,-0.39834 -0.26831,-0.0991 -0.53824,-0.19362 -0.81054,-0.28125 -0.41325,-0.12278 -0.83036,-0.2318 -1.2461,-0.34571 -0.49799,-0.11209 -0.99485,-0.23024 -1.49745,-0.32039 -0.4495,-0.0849 -0.9006,-0.16275 -1.35447,-0.22026 -0.29832,-0.0361 -0.59677,-0.0722 -0.89691,-0.0893 -0.43034,-0.0329 -0.86142,-0.0546 -1.29218,-0.081 -0.48959,-0.0143 -0.97917,-0.0286 -1.46875,-0.043 -0.0606,0.001 -0.1211,0.003 -0.18164,0.004 z m -1.25586,12.12305 c 0.30038,0.0434 0.59535,0.11723 0.89114,0.18406 0.31491,0.0781 0.6231,0.18061 0.9338,0.27363 0.26546,0.0783 0.52415,0.17735 0.78442,0.27107 0.35781,0.12442 0.70284,0.2815 1.04689,0.43921 0.24343,0.12446 0.48672,0.25039 0.71943,0.39416 0.2424,0.15197 0.48164,0.30943 0.71444,0.47581 0.23212,0.16166 0.45339,0.33894 0.6638,0.52795 0.20464,0.1898 0.40652,0.38294 0.60312,0.58096 0.19907,0.21636 0.40404,0.42817 0.58202,0.66271 0.17167,0.22262 0.32329,0.46017 0.47641,0.69581 0.22774,0.34674 0.43151,0.70952 0.60149,1.0881 0.1219,0.24956 0.22346,0.50851 0.30462,0.7741 0.0927,0.2796 0.17486,0.56266 0.25068,0.84727 0.0636,0.2809 0.11427,0.56472 0.15625,0.84961 0.03,0.28814 0.0401,0.57789 0.0527,0.86719 0.002,0.30873 -0.009,0.61742 -0.0234,0.92578 -0.0181,0.27848 -0.0566,0.55508 -0.0898,0.83203 -0.0415,0.31375 -0.11523,0.62174 -0.19182,0.92843 -0.0702,0.27724 -0.13937,0.55521 -0.22694,0.82757 -0.0913,0.2711 -0.18181,0.54297 -0.2898,0.80797 -0.16589,0.38896 -0.35407,0.7697 -0.58344,1.12549 -0.16265,0.24002 -0.33456,0.4738 -0.50683,0.70703 -0.1729,0.21909 -0.36411,0.42323 -0.55932,0.62247 -0.21318,0.21775 -0.42945,0.43282 -0.65684,0.6358 -0.2207,0.20073 -0.44555,0.39709 -0.67891,0.58303 -0.22833,0.18177 -0.45979,0.36014 -0.69846,0.52819 -0.23849,0.17 -0.47712,0.34203 -0.73799,0.47667 -0.24445,0.13082 -0.50296,0.23407 -0.76517,0.32337 -0.26144,0.0871 -0.52214,0.1785 -0.79198,0.23672 -0.27729,0.0646 -0.55947,0.10214 -0.84149,0.13881 -0.29021,0.0323 -0.58114,0.0579 -0.87275,0.074 -0.27604,0.0182 -0.55277,0.0246 -0.82926,0.0328 -0.3702,0.0122 -0.74063,0.004 -1.1108,-0.005 -0.33554,-0.0119 -0.66871,-0.0603 -0.99716,-0.12857 -0.27543,-0.0547 -0.55224,-0.10727 -0.81828,-0.19915 -0.28672,-0.0829 -0.55854,-0.20488 -0.83147,-0.32401 -0.27708,-0.12148 -0.55426,-0.24561 -0.81717,-0.39563 -0.27982,-0.16174 -0.55203,-0.33616 -0.82108,-0.51514 -0.23887,-0.16283 -0.46213,-0.34702 -0.68916,-0.52567 -0.28364,-0.21754 -0.53861,-0.46867 -0.79912,-0.71261 -0.20695,-0.20148 -0.40887,-0.40782 -0.60156,-0.62305 -0.22612,-0.25563 -0.43157,-0.52953 -0.6128,-0.81875 -0.14921,-0.2224 -0.2791,-0.45727 -0.39632,-0.69792 -0.14181,-0.28272 -0.25478,-0.57913 -0.34682,-0.88154 -0.0879,-0.27761 -0.17097,-0.55721 -0.23746,-0.84078 -0.0735,-0.30348 -0.13859,-0.60937 -0.17798,-0.91935 -0.0556,-0.37607 -0.0939,-0.7544 -0.13096,-1.13267 -0.0183,-0.28944 -0.0293,-0.57916 -0.0332,-0.86914 0.002,-0.28996 0.0122,-0.57968 0.0293,-0.86914 0.0253,-0.29386 0.0581,-0.58686 0.1,-0.87883 0.0424,-0.27789 0.0995,-0.55437 0.18737,-0.82171 0.0905,-0.2801 0.20481,-0.55172 0.3341,-0.81602 0.1195,-0.2661 0.25976,-0.52199 0.39595,-0.77975 0.13649,-0.25091 0.28093,-0.49784 0.43647,-0.73742 0.16584,-0.24646 0.33346,-0.4923 0.51597,-0.72679 0.1743,-0.23134 0.35882,-0.45595 0.57014,-0.65473 0.20307,-0.19185 0.40325,-0.38821 0.62243,-0.56175 0.25284,-0.20309 0.519,-0.38864 0.78093,-0.57964 0.24749,-0.15589 0.50011,-0.30295 0.7583,-0.4404 0.25023,-0.13195 0.50474,-0.25513 0.76318,-0.37015 0.27406,-0.10748 0.54922,-0.21291 0.82967,-0.3025 0.44204,-0.12745 0.88412,-0.26002 1.33856,-0.33636 0.32112,-0.0618 0.64538,-0.10442 0.96849,-0.15411 0.39343,-0.044 0.78632,-0.0951 1.18164,-0.11914 0.0573,0 0.11459,0 0.17188,0 z m -28.55078,25.87109 c -0.12089,0.21047 -0.13039,0.48947 -9.6e-4,0.69995 0.1463,0.25839 0.341,0.4847 0.52151,0.71926 0.38343,0.48417 0.76589,0.96912 1.15612,1.44786 0.20554,0.25484 0.40984,0.51072 0.62436,0.75814 0.41753,0.4742 0.84436,0.94017 1.26582,1.41088 0.19946,0.21867 0.38972,0.44612 0.60678,0.64795 0.30215,0.29738 0.6043,0.59476 0.90644,0.89214 0.59961,0.54492 1.19922,1.08984 1.79883,1.63476 0.49185,0.40258 0.9817,0.80763 1.47931,1.20309 0.35823,0.28985 0.71972,0.57581 1.09087,0.84902 0.22987,0.17143 0.46608,0.33429 0.7011,0.49857 0.38008,0.26106 0.7615,0.52044 1.15353,0.76337 0.37262,0.23136 0.75093,0.45342 1.12988,0.67423 0.4792,0.25115 0.95968,0.49984 1.44141,0.7461 0.65089,0.3023 1.30873,0.58936 1.96875,0.87109 0.27132,0.11652 0.54961,0.21523 0.82617,0.31836 0.29981,0.10665 0.59942,0.21392 0.90276,0.31024 0.36312,0.12046 0.7284,0.23442 1.09433,0.34598 0.44603,0.13497 0.89657,0.25429 1.34857,0.36749 0.52777,0.13271 1.05787,0.25621 1.58908,0.3744 0.37119,0.0829 0.7435,0.16055 1.11669,0.23396 0.63351,0.11811 1.26792,0.23158 1.90169,0.3484 0.42461,0.0576 0.84974,0.11095 1.27539,0.16015 0.36952,0.0277 0.73927,0.0517 1.1094,0.0696 0.46849,0.0239 0.93723,0.0466 1.40642,0.0488 0.57216,0.004 1.14425,-0.009 1.71628,-0.0196 0.34473,-0.005 0.68929,-0.0177 1.03353,-0.0364 0.43798,-0.0384 0.8763,-0.0731 1.31445,-0.10937 0.50993,-0.0744 1.02016,-0.14691 1.53012,-0.22092 0.25867,-0.0425 0.55407,-0.0807 0.71988,-0.31033 0.15671,-0.19971 0.14852,-0.48258 0.0348,-0.70034 -0.11739,-0.24037 -0.28479,-0.45302 -0.45038,-0.66184 -0.15532,-0.18413 -0.32201,-0.37176 -0.54788,-0.46945 -0.24171,-0.12514 -0.50631,-0.19664 -0.76804,-0.26669 -0.38118,-0.1043 -0.76822,-0.18477 -1.1537,-0.27117 -1.35422,-0.28986 -2.7083,-0.58035 -4.0638,-0.86421 -1.35378,-0.28512 -2.70718,-0.57207 -4.06077,-0.8581 -0.56771,-0.13086 -1.13542,-0.26172 -1.70313,-0.39258 -0.56901,-0.15429 -1.13802,-0.30859 -1.70703,-0.46289 -0.52799,-0.17317 -1.05599,-0.34635 -1.58398,-0.51953 -0.50645,-0.18562 -1.00979,-0.37959 -1.50942,-0.58286 -0.27711,-0.11066 -0.55228,-0.2261 -0.82847,-0.33901 -0.57233,-0.26167 -1.14577,-0.52172 -1.70424,-0.8122 -0.55531,-0.28256 -1.10701,-0.57265 -1.64607,-0.8853 -0.34409,-0.19792 -0.68845,-0.39536 -1.02753,-0.60181 -0.25548,-0.15134 -0.50868,-0.30666 -0.75793,-0.46803 -0.44013,-0.29324 -0.86787,-0.60441 -1.30112,-0.9076 -0.56062,-0.39472 -1.11324,-0.80066 -1.67027,-1.20043 -1.39332,-1.00523 -2.78383,-2.01435 -4.17605,-3.02112 -0.30012,-0.2089 -0.60623,-0.41153 -0.93404,-0.57479 -0.25628,-0.13402 -0.52752,-0.23814 -0.80432,-0.32118 -0.27834,-0.0875 -0.55985,-0.1648 -0.84536,-0.2252 -0.27982,-0.0639 -0.56142,-0.11994 -0.8428,-0.17639 -0.22527,-0.0352 -0.4527,-0.0903 -0.67699,-0.11455 z"
       id="path4533"
       inkscape:connector-curvature="0"
       sodipodi:nodetypes="ccccccccccccccccccccccccccccccccccccccccccccccccccccccccccccccccccccccccccccccccccccccccccccccccccccccccccccccccccccccccccccccccccccccccccccccccccccccccccccccccccccccccccccccccccccccccccccccccccccccccccccccccccccccccccccccccccccccccccccccccccccccccccccccccccccccccccccccccccccccccccccccccccccccccccccccccccccccccccccccccccccccccccccccccccccccccccccccccccccccccccccccccccccccccccccccccccccccccccccccccccccccccccccccccccccccccccccccccccccccccccccccccccccccccccccccccccccccccccccccccccccccccccccccccccccccccccccccccccccccccccccccccccccccccccccccccccccccccccccccccccccc" />
  </g>
</svg>
