<?xml version="1.0" encoding="UTF-8" standalone="no"?>
<!-- Created with Inkscape (http://www.inkscape.org/) -->

<svg
   xmlns:dc="http://purl.org/dc/elements/1.1/"
   xmlns:cc="http://creativecommons.org/ns#"
   xmlns:rdf="http://www.w3.org/1999/02/22-rdf-syntax-ns#"
   xmlns:svg="http://www.w3.org/2000/svg"
   xmlns="http://www.w3.org/2000/svg"
   xmlns:sodipodi="http://sodipodi.sourceforge.net/DTD/sodipodi-0.dtd"
   xmlns:inkscape="http://www.inkscape.org/namespaces/inkscape"
   width="165mm"
   height="165mm"
   viewBox="0 0 165 165"
   version="1.1"
   id="svg8"
   inkscape:version="0.92.1 r15371"
   sodipodi:docname="gears_v1_blue.svg">
  <defs
     id="defs2" />
  <sodipodi:namedview
     id="base"
     pagecolor="#ffffff"
     bordercolor="#666666"
     borderopacity="1.0"
     inkscape:pageopacity="0.0"
     inkscape:pageshadow="2"
     inkscape:zoom="0.49497475"
     inkscape:cx="40.196633"
     inkscape:cy="540.49023"
     inkscape:document-units="mm"
     inkscape:current-layer="layer1"
     showgrid="false"
     fit-margin-top="0"
     fit-margin-left="0"
     fit-margin-right="0"
     fit-margin-bottom="0"
     inkscape:window-width="1280"
     inkscape:window-height="960"
     inkscape:window-x="0"
     inkscape:window-y="0"
     inkscape:window-maximized="1" />
  <metadata
     id="metadata5">
    <rdf:RDF>
      <cc:Work
         rdf:about="">
        <dc:format>image/svg+xml</dc:format>
        <dc:type
           rdf:resource="http://purl.org/dc/dcmitype/StillImage" />
        <dc:title />
      </cc:Work>
    </rdf:RDF>
  </metadata>
  <g
     inkscape:label="Layer 1"
     inkscape:groupmode="layer"
     id="layer1"
     transform="translate(0,-132)">
    <path
       style="fill:#3e86ea;stroke-width:2.1734972;fill-opacity:1"
       d="m 56.053868,295.91113 c -2.982368,-0.50793 -9.648853,-2.49779 -14.814404,-4.4219 -9.022382,-3.36073 -9.338417,-3.78471 -8.032315,-10.77575 1.147319,-6.14119 0.412503,-8.1276 -4.706586,-12.72312 -4.660153,-4.1835 -7.640815,-5.17753 -12.859786,-4.2886 -6.2380275,1.06249 -7.0640605,0.47837 -10.1007015,-7.14247 -1.818907,-4.56477 -3.97776,-12.79039 -4.79744196,-18.27918 -1.440513,-9.64589 -1.27373,-10.0554 4.98829496,-12.24743 4.6693105,-1.63447 7.2114455,-4.49747 9.1025775,-10.25142 2.383395,-7.25177 2.177295,-8.46099 -2.248349,-13.19141 l -4.8722705,-5.20784 5.7966235,-7.63132 c 3.188135,-4.19721 9.216504,-10.25061 13.396371,-13.45199 l 7.599748,-5.82067 4.89676,4.61935 c 4.291928,4.0488 5.910868,4.33818 13.107284,2.3429 6.235467,-1.72884 8.760939,-3.86188 10.498595,-8.86722 2.216887,-6.38576 2.597176,-6.54422 12.226371,-5.09424 5.466079,0.8231 13.657693,2.99091 18.203593,4.81736 7.719678,3.10163 8.177958,3.78812 6.942748,10.39969 -1.080008,5.7809 -0.26345,8.14229 4.45346,12.87878 4.72118,4.74079 7.06607,5.55689 12.84068,4.46908 6.74301,-1.27024 7.22195,-0.90138 10.51737,8.10006 1.89895,5.187 4.10048,13.60338 4.89227,18.70306 1.40241,9.03242 1.26669,9.30688 -5.24945,10.61552 -5.56083,1.11679 -7.08196,2.80854 -9.01847,10.03003 -2.05097,7.64834 -1.79782,9.25487 2.11795,13.44031 l 4.44737,4.75367 -5.18184,7.65741 c -2.85,4.21158 -8.75915,10.39729 -13.13142,13.74602 l -7.949598,6.08863 -5.02159,-4.73714 c -4.47447,-4.221 -5.96413,-4.48226 -13.672338,-2.39805 -7.116988,1.92437 -8.881072,3.49555 -9.949902,8.86185 -1.326383,6.65946 -2.441227,7.04644 -14.421604,5.00603 z m 6.534303,-16.02344 c 0.971552,-4.13264 3.13729,-5.56488 10.261626,-6.78615 4.966598,-0.8514 10.791137,-2.49433 12.943408,-3.65097 2.896067,-1.55635 5.265747,-1.00324 9.116567,2.12789 l 5.203298,4.23089 6.16573,-5.93167 6.16573,-5.93166 -4.37613,-4.67752 c -4.10498,-4.3877 -4.17207,-5.16793 -1.08284,-12.59217 1.81131,-4.35307 3.29328,-10.30053 3.29328,-13.21657 0,-3.96177 1.68616,-5.89214 6.67085,-7.63704 5.25865,-1.84077 6.40658,-3.26911 5.4225,-6.74708 -0.68659,-2.42656 -1.77684,-6.29207 -2.42277,-8.59002 -0.95133,-3.38437 -2.29044,-3.86164 -7.04925,-2.51233 -5.1307,1.45476 -7.12282,0.36742 -15.727688,-8.58455 -8.24604,-8.57867 -9.60896,-11.16611 -8.35725,-15.86588 1.29779,-4.87273 0.62162,-5.92152 -5.111534,-7.92841 -9.969299,-3.48975 -11.806996,-2.90323 -13.225984,4.22118 -1.038859,5.21583 -2.420339,6.53401 -6.847791,6.53401 -3.050514,0 -9.093262,1.48813 -13.428325,3.30696 -7.403456,3.10619 -8.167419,3.03765 -12.584441,-1.12917 l -4.702522,-4.43613 -5.782375,5.38119 c -6.909384,6.42998 -7.10002,8.07265 -1.524859,13.13905 3.89904,3.54323 3.990359,4.3878 1.084497,10.03042 -1.745149,3.38879 -3.17302,9.17491 -3.17302,12.85806 0,5.69829 -0.970062,6.89143 -6.506992,8.00341 -7.1105365,1.42803 -7.6816645,3.26266 -4.16718,13.3862 2.071468,5.96686 2.938047,6.51151 7.555571,4.74865 4.535594,-1.7316 6.581502,-0.61981 15.689417,8.52591 8.02851,8.06185 10.097982,11.47827 8.864379,14.6339 -2.581785,6.60443 -2.27793,7.1543 5.135044,9.29234 9.245435,2.6666 11.024779,2.06829 12.499054,-4.20274 z M 50.414467,246.46256 c -5.692632,-5.71626 -7.374598,-9.21818 -7.374598,-15.35418 0,-15.97142 9.223897,-25.1567 25.262459,-25.1567 11.581152,0 22.455524,11.60199 22.455524,23.95805 0,7.49916 -1.32895,10.48207 -7.374601,16.55283 -6.045653,6.07075 -9.016232,7.40521 -16.484391,7.40521 -7.468158,0 -10.438738,-1.33446 -16.484393,-7.40521 z m 21.85684,-3.8582 c 9.92246,-4.53974 10.427048,-20.59832 0.792473,-25.22026 -11.981172,-5.74767 -24.022779,5.1774 -19.339569,17.54633 1.826357,4.82364 5.706259,7.94707 12.530342,10.08728 0.242103,0.076 2.949648,-1.01008 6.016754,-2.41335 z m 59.697523,-45.4186 c 0,-3.89852 -11.45682,-7.10845 -15.77461,-4.41968 -5.37065,3.34439 -16.345578,-7.11464 -12.43302,-11.84857 2.964,-3.58623 0.89254,-11.95315 -3.815078,-15.40975 -4.85124,-3.56203 -1.49804,-16.9511 3.890858,-15.53602 4.82005,1.26571 14.11664,-7.87881 11.81373,-11.62047 -0.87431,-1.42052 -0.24452,-3.43827 1.3995,-4.48389 4.50458,-2.86501 12.31043,-2.3443 14.26859,0.95182 2.45986,4.14059 11.80623,6.06637 15.30217,3.15295 4.18365,-3.48654 15.39676,7.57089 11.93685,11.77115 -3.22499,3.91507 -0.97018,13.93972 3.64826,16.21979 3.12677,1.54365 3.45263,3.15329 1.85074,9.14224 -1.44611,5.40652 -2.83565,6.92523 -5.42378,5.92794 -4.49898,-1.73359 -13.75923,6.85284 -12.09298,11.21305 0.68413,1.79023 -0.11847,4.12115 -1.78342,5.17981 -4.16497,2.64818 -12.78781,2.48609 -12.78781,-0.24037 z m 8.96784,-26.62972 c 3.64286,-6.83501 -0.89783,-14.69847 -8.48754,-14.69847 -7.37811,0 -11.32529,3.52471 -11.32529,10.11312 0,10.40793 14.8748,13.85044 19.81283,4.58535 z"
       id="path4496"
       inkscape:connector-curvature="0" />
  </g>
</svg>
