<?xml version="1.0" encoding="UTF-8" standalone="no"?>
<!-- Created with Inkscape (http://www.inkscape.org/) -->

<svg
   xmlns:dc="http://purl.org/dc/elements/1.1/"
   xmlns:cc="http://creativecommons.org/ns#"
   xmlns:rdf="http://www.w3.org/1999/02/22-rdf-syntax-ns#"
   xmlns:svg="http://www.w3.org/2000/svg"
   xmlns="http://www.w3.org/2000/svg"
   xmlns:sodipodi="http://sodipodi.sourceforge.net/DTD/sodipodi-0.dtd"
   xmlns:inkscape="http://www.inkscape.org/namespaces/inkscape"
   width="52.707119mm"
   height="51.772331mm"
   viewBox="0 0 52.707119 51.772331"
   version="1.1"
   id="svg8"
   inkscape:version="0.92.1 r15371"
   sodipodi:docname="icon_utilizing_v3.svg">
  <defs
     id="defs2" />
  <sodipodi:namedview
     id="base"
     pagecolor="#ffffff"
     bordercolor="#666666"
     borderopacity="1.0"
     inkscape:pageopacity="0.0"
     inkscape:pageshadow="2"
     inkscape:zoom="1.4"
     inkscape:cx="28.006219"
     inkscape:cy="38.937274"
     inkscape:document-units="mm"
     inkscape:current-layer="layer1"
     showgrid="false"
     fit-margin-top="0"
     fit-margin-left="0"
     fit-margin-right="0"
     fit-margin-bottom="0"
     inkscape:window-width="1280"
     inkscape:window-height="967"
     inkscape:window-x="0"
     inkscape:window-y="0"
     inkscape:window-maximized="1" />
  <metadata
     id="metadata5">
    <rdf:RDF>
      <cc:Work
         rdf:about="">
        <dc:format>image/svg+xml</dc:format>
        <dc:type
           rdf:resource="http://purl.org/dc/dcmitype/StillImage" />
        <dc:title />
      </cc:Work>
    </rdf:RDF>
  </metadata>
  <g
     inkscape:label="Layer 1"
     inkscape:groupmode="layer"
     id="layer1"
     transform="translate(-103.54806,-37.926804)">
    <path
       style="fill:#43d969;fill-opacity:1;stroke-width:0.35277778;stroke:none;stroke-opacity:1"
       d="m 135.62657,88.416614 c -0.69274,-0.77192 -1.06823,-1.4981 -0.94317,-1.82401 0.1361,-0.35468 -0.0257,-0.58161 -0.46909,-0.65776 -0.69357,-0.11913 -5.12243,-5.13664 -4.94404,-5.60116 0.0544,-0.14168 1.7658,-2.27598 3.80309,-4.74291 l 3.70417,-4.48533 0.10848,1.44754 0.10848,1.44754 h 4.69877 4.69877 l 0.71726,1.67569 c 1.54035,3.59861 1.34717,6.50505 -0.55034,8.28001 -1.46051,1.3662 -3.01849,2.02484 -5.37141,2.27076 -1.8876,0.1973 -2.10835,0.15603 -1.91138,-0.35726 0.12402,-0.32319 0.0497,-0.58031 -0.16783,-0.58031 -0.21479,0 -0.39053,0.23812 -0.39053,0.52916 0,0.32625 -0.33113,0.52917 -0.8635,0.52917 -0.78,0 -0.87382,0.16206 -0.97014,1.67569 l -0.10663,1.6757 z m -2.20043,-4.18554 c 0,-0.19402 -0.15875,-0.35277 -0.35278,-0.35277 -0.19403,0 -0.35278,0.15875 -0.35278,0.35277 0,0.19403 0.15875,0.35278 0.35278,0.35278 0.19403,0 0.35278,-0.15875 0.35278,-0.35278 z m 10.79647,-8.01834 c -0.35861,-0.3586 -0.65449,0.18129 -0.36026,0.65736 0.22226,0.35963 0.30535,0.3599 0.42485,0.001 0.0817,-0.24511 0.0526,-0.54156 -0.0646,-0.65879 z m -30.10743,8.68561 c -0.74668,-0.47821 -2.06145,-2.25609 -3.79237,-5.12818 -1.4572,-2.41792 -2.64945,-4.4823 -2.64945,-4.5875 0,-0.1052 -0.35099,-0.69204 -0.77997,-1.30407 -0.42898,-0.61204 -0.54804,-0.93248 -0.26458,-0.71208 1.39984,1.08836 12.25242,1.55235 16.60246,0.70981 2.8435,-0.55074 4.61027,-0.17825 1.90459,0.40156 -0.97014,0.20789 -2.75173,0.48867 -3.95909,0.62395 -1.71901,0.19261 -2.23556,0.38937 -2.38125,0.90705 -0.10233,0.3636 -0.27027,0.96016 -0.37321,1.32569 -0.14175,0.50333 0.0509,0.72657 0.79375,0.91995 l 0.98091,0.25533 -0.82633,0.31546 c -0.45448,0.17351 -0.97042,0.22641 -1.14653,0.11757 -0.17611,-0.10884 -0.32019,-0.0113 -0.32019,0.21685 0,0.25422 0.30181,0.33582 0.77979,0.21082 0.82805,-0.21653 3.80632,0.4001 3.80632,0.78808 0,0.12645 -1.22798,0.61109 -2.72884,1.07698 -1.50086,0.46589 -2.53174,0.91277 -2.29086,0.99306 0.24089,0.0803 0.34825,0.29119 0.23858,0.46865 -0.11327,0.18327 0.86731,0.32264 2.27003,0.32264 1.3582,0 2.56999,0.16269 2.69288,0.36152 0.12288,0.19883 0.0926,0.33879 -0.0674,0.311 -0.15995,-0.0278 -1.04487,-0.0317 -1.9665,-0.009 -1.20449,0.03 -1.6757,0.18473 -1.6757,0.55013 0,0.64686 0.5407,0.97643 2.10469,1.28289 0.83284,0.16319 0.0756,0.25578 -2.28108,0.27891 -3.00495,0.0295 -3.69716,-0.0739 -4.67068,-0.69733 z m 35.53874,-6.84789 c 0,-1.77438 -4.42004,-10.23663 -6.9233,-13.25478 -0.87021,-1.04921 -2.06542,-2.62203 -2.656,-3.49515 l -1.0738,-1.5875 1.47918,1.41111 c 0.81354,0.77611 2.19255,2.4033 3.06446,3.61597 1.63528,2.27442 1.76947,2.34967 3.55357,1.99284 0.8273,-0.16546 1.02132,-0.36027 0.88353,-0.88718 -0.13366,-0.51112 -0.0377,-0.62187 0.39512,-0.4558 0.31442,0.12066 0.57168,0.3876 0.57168,0.59321 0,0.20561 0.10486,0.26897 0.23302,0.14081 0.12817,-0.12817 -0.0298,-0.52341 -0.35097,-0.87833 -0.3212,-0.35492 -0.67699,-1.42746 -0.79066,-2.38342 l -0.20666,-1.7381 0.72618,0.88194 c 0.3994,0.48507 0.72971,1.00101 0.73402,1.14653 0.004,0.14552 0.24597,0.26458 0.53702,0.26458 0.29104,0 0.52916,0.18521 0.52916,0.41158 0,0.22636 0.10483,0.30675 0.23294,0.17863 0.12812,-0.12812 0.45371,0.0822 0.72354,0.46748 0.39647,0.56605 0.58345,0.61638 0.97457,0.26234 0.41004,-0.37116 0.40941,-0.55422 -0.004,-1.19829 -0.92508,-1.44075 -2.6235,-4.70785 -2.4474,-4.70785 0.0971,0 0.71807,0.84667 1.38003,1.88148 1.30818,2.04502 2.33877,2.49202 2.23668,0.97014 -0.0336,-0.50124 -0.28603,-1.26853 -0.56092,-1.70509 -0.27488,-0.43656 -0.40415,-0.79375 -0.28725,-0.79375 0.23934,0 1.39523,1.78584 2.84828,4.40054 1.36584,2.45778 1.1129,3.70926 -1.79093,8.86112 -1.30229,2.31046 -2.51295,4.29796 -2.69035,4.41667 -0.1774,0.11871 -0.29874,0.27746 -0.26964,0.35278 0.0291,0.0753 -0.0537,0.41476 -0.184,0.75431 -0.29124,0.75896 -0.86698,0.81287 -0.86698,0.0812 z m -28.83959,-0.0598 c 0.33955,-0.0887 0.89518,-0.0887 1.23472,0 0.33955,0.0887 0.0617,0.16134 -0.61736,0.16134 -0.67909,0 -0.95691,-0.0726 -0.61736,-0.16134 z m 6.54844,-4.58391 c 0.25466,-0.10191 0.55893,-0.0894 0.67616,0.0278 0.11722,0.11722 -0.0911,0.2006 -0.46302,0.18528 -0.41097,-0.0169 -0.49456,-0.10052 -0.21314,-0.21313 z m -18.18178,-1.32413 c -4.29978,-1.04191 -6.25437,-3.73716 -5.45925,-7.52793 0.22534,-1.07432 0.88914,-2.87451 1.47511,-4.00041 0.58597,-1.1259 1.0654,-2.18735 1.0654,-2.35877 0,-0.17142 -0.54936,-0.60753 -1.2208,-0.96912 -0.67143,-0.36159 -1.1501,-0.72813 -1.0637,-0.81454 0.14365,-0.14364 11.58447,-2.13914 11.67056,-2.03556 0.0206,0.0248 0.99417,2.62944 2.16351,5.78814 l 2.12606,5.74308 -1.27564,-0.75264 c -1.03433,-0.61027 -1.33111,-0.6623 -1.56891,-0.27503 -0.16131,0.26269 -1.24364,2.1048 -2.40518,4.09358 -2.33019,3.98974 -2.19299,3.91228 -5.50716,3.1092 z m 2.75216,-2.76524 c -0.0436,-0.42181 -0.5275,-0.34012 -0.6791,0.11466 -0.0776,0.23283 0.0494,0.35983 0.28223,0.28222 0.23283,-0.0776 0.41142,-0.25621 0.39687,-0.39688 z m 2.44299,-1.66687 c 0,-0.19403 -0.16812,-0.35278 -0.3736,-0.35278 -0.20548,0 -0.27548,0.15875 -0.15557,0.35278 0.11992,0.19403 0.28804,0.35278 0.3736,0.35278 0.0856,0 0.15557,-0.15875 0.15557,-0.35278 z m -1.76389,-11.28887 c 0,-0.19403 -0.15875,-0.35278 -0.35278,-0.35278 -0.19403,0 -0.35278,0.15875 -0.35278,0.35278 0,0.19403 0.15875,0.35278 0.35278,0.35278 0.19403,0 0.35278,-0.15875 0.35278,-0.35278 z m 33.37488,6.40364 -0.66818,-0.93559 0.82497,0.78395 c 0.45373,0.43118 0.75441,0.85219 0.66817,0.93559 -0.0862,0.0834 -0.45746,-0.26938 -0.82496,-0.78395 z m -23.14433,-7.36246 c 0,-0.65103 1.80415,-5.47745 2.37077,-6.34221 0.4745,-0.72418 0.43288,-0.871 -0.5428,-1.91498 -0.96674,-1.03441 -1.10454,-1.08282 -1.61872,-0.56864 -0.30911,0.30912 -0.56202,0.73269 -0.56202,0.94128 0,0.20859 -0.3175,0.97164 -0.70556,1.69567 -0.38805,0.72403 -0.70555,1.07628 -0.70555,0.78277 0,-0.2935 0.21444,-0.84677 0.47653,-1.22949 0.26209,-0.38272 0.57892,-1.11767 0.70405,-1.63323 0.12514,-0.51555 0.32768,-1.22992 0.45011,-1.5875 0.12242,-0.35757 -0.2124,-0.002 -0.74405,0.78929 -1.36508,2.03275 -3.30295,3.11576 -2.37056,1.32482 0.18543,-0.35616 0.43234,-1.60007 0.54869,-2.76424 0.11635,-1.16417 0.1227,-1.91724 0.0141,-1.6735 -0.1086,0.24375 -0.34021,0.35495 -0.51467,0.24713 -0.2996,-0.18517 -0.71567,0.39209 -2.19118,3.04007 -0.34561,0.62023 -0.72208,1.03399 -0.83661,0.91946 -0.11453,-0.11453 0.21462,-0.92978 0.73144,-1.81167 0.51682,-0.88189 0.76486,-1.60343 0.55121,-1.60343 -0.21366,0 -0.29036,-0.15875 -0.17044,-0.35278 0.11991,-0.19403 0.0896,-0.34925 -0.0674,-0.34494 -0.44278,0.0122 -1.73525,1.14922 -2.19657,1.93244 -0.37901,0.64346 -0.39403,0.62793 -0.17068,-0.17639 0.45683,-1.6451 2.78174,-5.08336 3.98611,-5.89499 0.99135,-0.66807 1.66831,-0.80779 3.91386,-0.80779 1.49334,0 4.44643,-0.0997 6.56241,-0.22158 l 3.84724,-0.22158 -1.28536,1.36811 c -2.5849,2.75133 -6.36024,9.02776 -7.7194,12.83338 -0.82157,2.30039 -1.75496,4.04196 -1.75496,3.27452 z m 16.05139,-0.96291 c -5.91373,-1.00444 -5.90861,-1.00244 -4.46932,-1.74942 0.64632,-0.33543 1.10048,-0.79758 1.00924,-1.027 -0.0912,-0.22942 -1.12392,-2.07727 -2.29487,-4.10632 -2.36616,-4.10015 -2.36316,-3.97095 -0.14902,-6.42174 2.4159,-2.67411 5.18696,-3.41555 7.79417,-2.08545 1.53692,0.78407 3.51265,2.85884 4.69698,4.93239 0.45164,0.79075 0.97991,1.43835 1.17394,1.43912 0.19402,7.8e-4 0.86871,-0.31317 1.4993,-0.69765 0.63059,-0.38448 1.14653,-0.59423 1.14653,-0.46611 0,0.12812 -0.89599,2.66579 -1.99108,5.63926 -2.31151,6.27636 -1.32988,5.74647 -8.41587,4.54292 z m 6.52639,-1.95883 c 0,-0.19403 -0.16812,-0.35278 -0.3736,-0.35278 -0.20547,0 -0.27548,0.15875 -0.15556,0.35278 0.11991,0.19403 0.28803,0.35278 0.37359,0.35278 0.0856,0 0.15557,-0.15875 0.15557,-0.35278 z m -10.64948,-8.09184 c 0.0882,-0.26458 -0.0441,-0.39687 -0.30868,-0.30868 -0.25466,0.0849 -0.53247,0.3627 -0.61736,0.61736 -0.0882,0.26459 0.0441,0.39688 0.30868,0.30868 0.25466,-0.0849 0.53248,-0.3627 0.61736,-0.61736 z m 3.06476,0.33073 c 0.11992,-0.19403 0.0499,-0.35278 -0.15557,-0.35278 -0.20548,0 -0.3736,0.15875 -0.3736,0.35278 0,0.19403 0.07,0.35278 0.15557,0.35278 0.0856,0 0.25368,-0.15875 0.3736,-0.35278 z"
       id="path4531"
       inkscape:connector-curvature="0" />
  </g>
</svg>
