<?xml version="1.0" encoding="UTF-8" standalone="no"?>
<!-- Created with Inkscape (http://www.inkscape.org/) -->

<svg
   xmlns:dc="http://purl.org/dc/elements/1.1/"
   xmlns:cc="http://creativecommons.org/ns#"
   xmlns:rdf="http://www.w3.org/1999/02/22-rdf-syntax-ns#"
   xmlns:svg="http://www.w3.org/2000/svg"
   xmlns="http://www.w3.org/2000/svg"
   xmlns:sodipodi="http://sodipodi.sourceforge.net/DTD/sodipodi-0.dtd"
   xmlns:inkscape="http://www.inkscape.org/namespaces/inkscape"
   width="165mm"
   height="165mm"
   viewBox="0 0 165 165"
   version="1.1"
   id="svg8"
   inkscape:version="0.92.1 r15371"
   sodipodi:docname="info_v1_blue.svg">
  <defs
     id="defs2" />
  <sodipodi:namedview
     id="base"
     pagecolor="#ffffff"
     bordercolor="#666666"
     borderopacity="1.0"
     inkscape:pageopacity="0.0"
     inkscape:pageshadow="2"
     inkscape:zoom="0.35"
     inkscape:cx="-737.14286"
     inkscape:cy="537.14284"
     inkscape:document-units="mm"
     inkscape:current-layer="layer1"
     showgrid="false"
     fit-margin-top="0"
     fit-margin-left="0"
     fit-margin-right="0"
     fit-margin-bottom="0"
     inkscape:window-width="1280"
     inkscape:window-height="960"
     inkscape:window-x="0"
     inkscape:window-y="0"
     inkscape:window-maximized="1" />
  <metadata
     id="metadata5">
    <rdf:RDF>
      <cc:Work
         rdf:about="">
        <dc:format>image/svg+xml</dc:format>
        <dc:type
           rdf:resource="http://purl.org/dc/dcmitype/StillImage" />
        <dc:title />
      </cc:Work>
    </rdf:RDF>
  </metadata>
  <g
     inkscape:label="Layer 1"
     inkscape:groupmode="layer"
     id="layer1"
     transform="translate(0,-131.99999)">
    <path
       style="fill:#3e86ea;stroke-width:0.14888775;fill-opacity:1"
       d="m 80.664609,296.98196 c -5.97059,-0.25998 -11.975197,-0.97084 -15.488105,-1.83356 -0.327633,-0.0805 -1.33287,-0.32023 -2.233861,-0.53282 -4.011217,-0.94648 -9.639182,-2.80792 -12.807466,-4.23609 -0.163817,-0.0738 -1.067257,-0.48033 -2.007634,-0.9033 -2.304532,-1.03657 -4.485255,-2.18112 -8.044741,-4.22237 -1.555538,-0.89206 -5.135035,-3.31142 -7.148353,-4.83154 C 25.315124,274.66941 18.656397,267.58216 13.550397,259.7907 11.085032,256.02871 8.4877705,251.32435 7.1814156,248.25472 6.9201126,247.6407 6.6471832,247.00436 6.5748977,246.84062 4.3508999,241.80255 2.4459053,235.46831 1.2924929,229.27614 0.09886298,222.86812 -0.30050136,214.86163 0.23068576,207.98898 1.3200115,193.89497 6.0543999,180.25585 13.922514,168.54475 c 0.884934,-1.31717 3.525224,-4.93153 4.097085,-5.60861 0.160475,-0.19 0.849919,-1.01529 1.5321,-1.83398 2.875604,-3.45102 7.257269,-7.71611 11.44639,-11.14183 2.022701,-1.65411 6.608622,-4.80475 9.680418,-6.65069 1.577337,-0.94788 6.698082,-3.58556 8.488663,-4.37249 5.6047,-2.46318 11.804964,-4.38334 18.042604,-5.58765 7.678957,-1.48258 17.561992,-1.76615 25.741058,-0.73862 9.585968,1.20431 18.143868,3.82912 26.880788,8.24466 14.87481,7.51756 27.15805,19.44576 35.27158,34.25209 0.92272,1.68388 3.07636,6.05499 3.07636,6.24393 0,0.0469 0.14341,0.39966 0.31871,0.78405 1.5354,3.36692 3.59114,9.72593 4.58084,14.16993 0.65856,2.9571 1.34128,7.19299 1.65543,10.27076 0.26805,2.62632 0.35614,10.07913 0.15677,13.26316 -0.47584,7.59922 -2.01252,15.08886 -4.5745,22.29572 -1.07114,3.01308 -1.27267,3.5 -3.02594,7.31034 -5.67055,12.32369 -15.10297,23.69409 -26.51334,31.96078 -12.40395,8.98654 -27.65021,14.46675 -42.74119,15.36313 -3.141418,0.18659 -6.044923,0.2703 -7.371731,0.21253 z m 9.754516,-12.98612 c 1.433394,-0.17006 2.907745,-0.37426 3.276336,-0.45378 0.368578,-0.0795 0.971718,-0.18656 1.340309,-0.23787 2.26302,-0.31495 7.85959,-1.7812 10.53638,-2.76039 2.48097,-0.90758 2.52347,-0.92462 5.1751,-2.07514 14.41822,-6.25588 26.96174,-18.08379 34.09412,-32.14902 3.36645,-6.63869 5.33632,-12.59647 6.76725,-20.46708 0.91263,-5.01982 1.15443,-13.30282 0.54535,-18.68085 -1.51194,-13.35005 -6.27088,-25.17735 -14.28448,-35.50108 -5.5929,-7.2052 -12.29719,-13.08397 -20.21854,-17.72898 -1.49208,-0.87494 -6.08511,-3.20655 -7.4022,-3.75767 -5.35423,-2.24037 -11.462491,-4.05095 -15.63985,-4.63587 -0.603362,-0.0846 -1.141971,-0.18137 -1.196898,-0.2153 -0.05499,-0.0339 -1.404211,-0.21647 -2.998388,-0.40562 -3.829359,-0.45436 -11.367225,-0.49433 -15.110277,-0.0801 -14.233784,1.5752 -26.729271,6.87519 -37.752243,16.01266 -1.562898,1.29555 -6.349981,5.9486 -7.600079,7.38729 -2.995282,3.4471 -6.011597,7.66718 -8.192172,11.46155 -1.00116,1.74207 -3.331804,6.4507 -3.868096,7.8147 -0.177033,0.45027 -0.455301,1.1536 -0.618378,1.56294 -1.609935,4.04129 -3.079774,9.44011 -3.830616,14.07025 -0.695546,4.28909 -0.835963,6.24158 -0.823954,11.45779 0.01393,6.05929 0.233242,8.32066 1.356929,13.99204 0.84352,4.25738 2.305629,8.9754 4.059333,13.09893 0.772036,1.81531 2.806794,5.92006 3.689349,7.44257 4.76759,8.2247 11.162672,15.47061 18.731706,21.22384 8.68006,6.59772 19.944427,11.41327 30.752811,13.14691 1.583791,0.25403 2.957182,0.41562 6.924962,0.8148 0.327633,0.0329 2.639686,0.0401 5.137883,0.0158 3.434099,-0.0334 5.177977,-0.11955 7.148353,-0.35333 z m -32.018664,-21.9579 v -3.18584 l 3.909255,-0.0679 c 2.218598,-0.0386 4.309332,-0.14782 4.834339,-0.25264 1.274418,-0.25445 2.382721,-0.95021 2.886898,-1.8123 0.896371,-1.53269 0.879126,-1.08949 0.879126,-22.59398 0,-20.19487 -0.01532,-20.75551 -0.59847,-21.89801 -0.359218,-0.70378 -1.297211,-1.53832 -2.181674,-1.94105 -1.575528,-0.71737 -3.229656,-0.91308 -7.237855,-0.8563 l -3.688726,0.0523 0.04007,-3.12749 0.04007,-3.12749 2.97848,-0.10413 c 1.638164,-0.0573 5.726129,-0.2081 9.084365,-0.33517 3.358237,-0.12707 8.116365,-0.29763 10.573605,-0.37902 2.457252,-0.0814 6.176622,-0.21465 8.265284,-0.29611 2.088661,-0.0815 4.684455,-0.18164 5.768418,-0.22263 l 1.970869,-0.0746 0.03958,26.68038 c 0.03662,24.65639 0.05881,26.73579 0.292631,27.4106 0.750769,2.16671 2.96891,2.9149 8.645184,2.91606 l 2.94126,5.8e-4 v 3.20032 3.20031 H 83.121799 58.400411 Z M 78.40715,191.91749 c -4.019311,-0.729 -7.7058,-3.30656 -9.722445,-6.79786 -1.230873,-2.13093 -1.768525,-3.94138 -1.896842,-6.38726 -0.214109,-4.08125 1.046759,-7.55419 3.872274,-10.66585 0.815635,-0.89824 2.801344,-2.29853 4.196429,-2.95925 2.213455,-1.04833 3.473243,-1.31375 6.180345,-1.30215 2.049047,0.009 2.455267,0.0541 3.616483,0.4033 2.739725,0.8239 4.588659,1.92583 6.445681,3.8415 1.874455,1.93367 2.974261,3.90778 3.675688,6.59773 0.482882,1.85186 0.451849,4.88452 -0.06941,6.77924 -0.757796,2.75466 -1.946494,4.78676 -3.892236,6.65384 -2.258495,2.16718 -4.815157,3.46571 -7.69129,3.90641 -1.296356,0.19862 -3.407469,0.16743 -4.714699,-0.0697 z"
       id="path4496"
       inkscape:connector-curvature="0" />
  </g>
</svg>
