<?xml version="1.0" encoding="UTF-8" standalone="no"?>
<!-- Created with Inkscape (http://www.inkscape.org/) -->

<svg
   xmlns:dc="http://purl.org/dc/elements/1.1/"
   xmlns:cc="http://creativecommons.org/ns#"
   xmlns:rdf="http://www.w3.org/1999/02/22-rdf-syntax-ns#"
   xmlns:svg="http://www.w3.org/2000/svg"
   xmlns="http://www.w3.org/2000/svg"
   xmlns:sodipodi="http://sodipodi.sourceforge.net/DTD/sodipodi-0.dtd"
   xmlns:inkscape="http://www.inkscape.org/namespaces/inkscape"
   width="165mm"
   height="165.00002mm"
   viewBox="0 0 165 165.00002"
   version="1.1"
   id="svg4523"
   inkscape:version="0.92.1 r15371"
   sodipodi:docname="list_v1_blue.svg">
  <defs
     id="defs4517" />
  <sodipodi:namedview
     id="base"
     pagecolor="#ffffff"
     bordercolor="#666666"
     borderopacity="1.0"
     inkscape:pageopacity="0.0"
     inkscape:pageshadow="2"
     inkscape:zoom="0.35"
     inkscape:cx="-168.57143"
     inkscape:cy="548.57145"
     inkscape:document-units="mm"
     inkscape:current-layer="layer1"
     showgrid="false"
     fit-margin-top="0"
     fit-margin-left="0"
     fit-margin-right="0"
     fit-margin-bottom="0"
     inkscape:window-width="1280"
     inkscape:window-height="960"
     inkscape:window-x="0"
     inkscape:window-y="0"
     inkscape:window-maximized="1" />
  <metadata
     id="metadata4520">
    <rdf:RDF>
      <cc:Work
         rdf:about="">
        <dc:format>image/svg+xml</dc:format>
        <dc:type
           rdf:resource="http://purl.org/dc/dcmitype/StillImage" />
        <dc:title />
      </cc:Work>
    </rdf:RDF>
  </metadata>
  <g
     inkscape:label="Layer 1"
     inkscape:groupmode="layer"
     id="layer1"
     transform="translate(0,-131.99999)">
    <path
       style="fill:#3e86ea;stroke-width:0.15261769;fill-opacity:1"
       d="m 22.778762,296.72875 c -2.648134,-0.56737 -4.624683,-1.66989 -6.641245,-3.7045 -1.932351,-1.94963 -3.093833,-4.25554 -3.507765,-6.96397 -0.112704,-0.73747 -0.149199,-22.66352 -0.120274,-72.2549 0.03852,-66.10025 0.05983,-71.2564 0.29731,-72.0378 0.952346,-3.13357 2.258198,-5.1747 4.429299,-6.92324 1.477084,-1.18959 3.112258,-2.00326 4.975869,-2.47601 l 1.452055,-0.36834 59.306016,0.0393 59.306013,0.0393 1.29725,0.43302 c 4.49063,1.49896 7.65044,4.88245 8.70451,9.32066 0.2988,1.25808 0.30146,1.99936 0.26274,73.0595 l -0.0391,71.78853 -0.36074,1.06648 c -1.65865,4.90363 -5.18506,8.06139 -10.06884,9.01626 -1.72621,0.3375 -117.713385,0.30415 -119.293084,-0.0343 z m 113.392578,-8.82856 c 3.19968,-0.67302 5.89873,-3.40492 6.57676,-6.65681 0.18573,-0.89075 0.21118,-10.52483 0.17761,-67.24243 l -0.0392,-66.20273 -0.34115,-1.00301 c -0.7057,-2.07495 -2.28555,-3.95293 -4.1493,-4.93231 -2.09232,-1.09948 2.76165,-1.01565 -56.280712,-0.97191 l -53.234262,0.0394 -1.019287,0.39681 c -2.690522,1.04741 -4.701024,3.23746 -5.385895,5.86687 -0.208115,0.79901 -0.233488,8.16175 -0.231879,67.29197 0.0011,57.75367 0.03086,66.50388 0.224875,67.23302 0.632415,2.37657 2.310432,4.40701 4.523966,5.47414 0.702763,0.33879 1.621133,0.68052 2.040837,0.7594 0.465823,0.0876 21.274175,0.14904 53.416194,0.15785 45.816513,0.0125 52.791813,-0.0148 53.721433,-0.21029 z m -27.24226,-7.3383 c -5.63191,-0.66741 -9.519139,-2.07784 -13.619339,-4.94159 -1.824244,-1.2741 -5.087765,-4.53919 -6.411654,-6.4147 -1.283354,-1.81809 -2.85071,-4.92765 -3.5386,-7.02041 -4.373479,-13.30541 2.044123,-27.69 14.820163,-33.21833 3.33917,-1.44488 5.94123,-2.01991 9.69203,-2.14182 2.99429,-0.0973 4.78896,0.0615 7.23918,0.64039 1.68212,0.39746 4.6381,1.43638 4.6381,1.63012 0,0.0665 -1.17885,1.64974 -2.61966,3.51831 -1.44081,1.86856 -2.6255,3.40671 -2.63265,3.4181 -0.007,0.0114 -0.66543,-0.1537 -1.46286,-0.36689 -1.26571,-0.33837 -1.76974,-0.38862 -3.96806,-0.39562 -1.4764,-0.004 -2.92581,0.0733 -3.50347,0.18854 -8.843179,1.76407 -15.115895,9.30858 -15.115895,18.1806 0,5.80659 2.712596,11.27819 7.303426,14.73175 7.221389,5.43248 17.161229,4.91823 23.803529,-1.23152 3.5407,-3.27815 5.82653,-8.42756 5.82653,-13.12576 v -1.26434 l 3.62136,-3.51546 3.62134,-3.51546 0.19422,0.64096 c 1.11774,3.68879 1.31195,8.61798 0.4979,12.63777 -0.70402,3.47651 -2.36828,7.34987 -4.38654,10.20907 -1.32389,1.87551 -4.58742,5.1406 -6.41166,6.4147 -3.45478,2.41297 -7.27545,3.97274 -11.40638,4.6566 -1.37808,0.22814 -5.18107,0.40348 -6.18101,0.28499 z m -0.0111,-15.82881 c -1.12434,-0.3184 -2.03808,-0.94742 -3.09187,-2.12847 -4.7431,-5.31591 -8.859079,-10.19742 -9.222959,-10.93836 -0.36154,-0.73619 -0.41796,-1.03651 -0.41796,-2.22464 0,-1.16683 0.0608,-1.50329 0.40412,-2.23553 1.38262,-2.94908 5.151149,-3.96215 7.844789,-2.10887 0.3501,0.24087 1.76217,1.74127 3.13792,3.33422 1.37576,1.59296 2.54918,2.88398 2.60762,2.86894 0.0584,-0.015 3.72043,-4.30279 8.13778,-9.52833 4.41733,-5.22554 8.25981,-9.67512 8.53884,-9.88794 1.27351,-0.97135 3.45371,-1.26125 5.03523,-0.66953 1.12295,0.42015 2.39027,1.59026 2.93225,2.70733 0.36259,0.74733 0.42204,1.05992 0.42645,2.24197 0.004,1.19465 -0.0491,1.4829 -0.41101,2.21296 -0.27312,0.5509 -3.83008,4.87834 -10.34921,12.59096 -5.4632,6.46336 -10.18641,12.01294 -10.49603,12.33239 -1.22584,1.26478 -3.45124,1.893 -5.07596,1.4329 z M 33.942918,230.79681 c -0.05594,-0.0559 -0.101782,-2.45969 -0.101782,-5.34162 v -5.23987 h 23.19789 23.19789 v 5.34162 5.34162 H 57.140775 c -12.702887,0 -23.141937,-0.0457 -23.19789,-0.10178 z m -0.0656,-27.4839 0.04018,-5.30347 48.723194,-0.0384 48.723208,-0.0384 v 5.34185 5.34185 H 82.600559 33.837218 Z m -0.03618,-22.16772 v -5.34162 h 48.761352 48.76136 v 5.34162 5.34162 H 82.602524 33.84117 Z M 33.94292,164.2555 c -0.05594,-0.0559 -0.101782,-2.45968 -0.101782,-5.34161 V 153.674 h 48.761352 48.76136 v 5.34162 5.34162 H 82.704228 c -26.762795,0 -48.705401,-0.0457 -48.761354,-0.10178 z"
       id="path4536"
       inkscape:connector-curvature="0" />
  </g>
</svg>
