<?xml version="1.0" encoding="UTF-8" standalone="no"?>
<!-- Created with Inkscape (http://www.inkscape.org/) -->

<svg
   xmlns:dc="http://purl.org/dc/elements/1.1/"
   xmlns:cc="http://creativecommons.org/ns#"
   xmlns:rdf="http://www.w3.org/1999/02/22-rdf-syntax-ns#"
   xmlns:svg="http://www.w3.org/2000/svg"
   xmlns="http://www.w3.org/2000/svg"
   xmlns:sodipodi="http://sodipodi.sourceforge.net/DTD/sodipodi-0.dtd"
   xmlns:inkscape="http://www.inkscape.org/namespaces/inkscape"
   width="165mm"
   height="165mm"
   viewBox="0 0 165 165"
   version="1.1"
   id="svg8"
   inkscape:version="0.92.1 r15371"
   sodipodi:docname="shield_v1_blue.svg">
  <defs
     id="defs2" />
  <sodipodi:namedview
     id="base"
     pagecolor="#ffffff"
     bordercolor="#666666"
     borderopacity="1.0"
     inkscape:pageopacity="0.0"
     inkscape:pageshadow="2"
     inkscape:zoom="0.35"
     inkscape:cx="-822.47368"
     inkscape:cy="317.64652"
     inkscape:document-units="mm"
     inkscape:current-layer="layer1"
     showgrid="false"
     fit-margin-top="0"
     fit-margin-left="0"
     fit-margin-right="0"
     fit-margin-bottom="0"
     inkscape:window-width="1280"
     inkscape:window-height="960"
     inkscape:window-x="0"
     inkscape:window-y="0"
     inkscape:window-maximized="1" />
  <metadata
     id="metadata5">
    <rdf:RDF>
      <cc:Work
         rdf:about="">
        <dc:format>image/svg+xml</dc:format>
        <dc:type
           rdf:resource="http://purl.org/dc/dcmitype/StillImage" />
        <dc:title />
      </cc:Work>
    </rdf:RDF>
  </metadata>
  <g
     inkscape:label="Layer 1"
     inkscape:groupmode="layer"
     id="layer1"
     transform="translate(-22.577113,-73.924932)">
    <path
       style="fill:#3e86ea;fill-opacity:1;stroke-width:0.35109648"
       d="M 86.72883,237.04634 C 80.004075,234.49028 77.872449,233.55345 73.618939,231.28463 66.158923,227.30548 60.070875,222.8168 53.91977,216.76057 37.733796,200.82428 27.44246,177.71629 23.833575,149.20555 c -1.666676,-13.16704 -1.675813,-29.60823 -0.02398,-43.09526 0.988269,-8.068933 1.015749,-8.192312 1.895653,-8.512212 17.646981,-6.415759 66.318479,-23.673146 66.766037,-23.673146 0.341919,0 15.708185,5.381464 34.147275,11.958822 l 33.52559,11.958822 0.76042,6.112044 c 0.85399,6.8642 1.6586,16.48346 1.40055,16.74374 -0.0932,0.0941 -1.78993,-0.019 -3.77045,-0.25128 -2.14718,-0.25176 -4.97959,-0.32647 -7.01578,-0.18502 -3.98063,0.27653 -3.61734,0.70379 -3.93293,-4.62547 -0.10569,-1.78483 -0.29163,-4.09877 -0.41321,-5.14208 l -0.22105,-1.89694 -27.24192,-9.732793 -27.241943,-9.732788 -27.220032,9.725632 -27.220032,9.725619 -0.219344,1.79953 c -0.945151,7.75412 -1.190003,21.072 -0.539403,29.33945 1.399567,17.78504 5.123435,32.36128 11.602606,45.41573 8.856857,17.84512 21.792721,29.86724 40.012243,37.18592 l 3.553469,1.42741 3.564935,-1.40125 c 11.877431,-4.66856 22.279921,-12.22429 30.266711,-21.98388 l 1.41555,-1.72974 2.07113,1.39854 c 3.15647,2.13142 5.09008,3.19167 7.89013,4.32631 1.40534,0.56949 2.59364,1.16544 2.64069,1.32434 0.10938,0.36944 -3.34321,4.69994 -6.81487,8.54772 -6.0396,6.69394 -15.54387,13.79034 -24.24831,18.10511 -4.98381,2.47045 -15.585015,6.61631 -16.841701,6.58634 -0.417154,-0.01 -2.96092,-0.85524 -5.652818,-1.87843 z M 87.241664,209.5887 C 65.848626,198.77553 52.974183,177.64551 48.763226,146.43645 c -0.54518,-4.04059 -0.763305,-8.00178 -0.895998,-16.27143 -0.09642,-6.01187 -0.04281,-11.53965 0.119156,-12.28395 l 0.29453,-1.35329 18.699554,-6.66498 c 10.284766,-3.66574 20.233429,-7.2176 22.108142,-7.89305 l 3.408568,-1.22805 v 55.52538 c 0,44.89735 -0.08572,55.52539 -0.447766,55.52539 -0.24627,0 -2.409755,-0.9917 -4.807748,-2.20377 z m 63.104046,-11.89725 c -13.58905,-1.49303 -24.88257,-11.21522 -28.87972,-24.86154 -0.73541,-2.51068 -0.82405,-3.49928 -0.80621,-8.99137 0.0184,-5.66982 0.0965,-6.42181 0.96307,-9.26703 3.58544,-11.77271 12.36993,-20.39965 24.01306,-23.58241 4.28349,-1.17093 12.45753,-1.16455 16.78049,0.0131 10.51916,2.86562 19.15529,10.67857 23.05398,20.85655 2.42215,6.32329 2.79361,14.94601 0.91741,21.29593 -2.61,8.83348 -8.29642,16.08734 -16.03104,20.44998 -5.78577,3.26341 -13.38317,4.815 -20.01104,4.0868 z m 13.41807,-26.25066 c 10.95687,-11.97452 12.20171,-13.4538 11.86883,-14.1041 -0.20455,-0.39958 -2.18164,-3.95236 -4.39355,-7.89509 -3.23974,-5.77482 -4.10445,-7.07737 -4.44751,-6.69944 -0.23422,0.25802 -3.93469,6.62464 -8.22328,14.14802 -4.28858,7.52339 -7.92144,13.55289 -8.07302,13.3989 -0.15157,-0.154 -1.98271,-2.80792 -4.06918,-5.89761 -2.08649,-3.08969 -3.94375,-5.66136 -4.12726,-5.71482 -0.18351,-0.0535 -2.57003,1.69582 -5.30337,3.88732 l -4.96972,3.98456 9.30461,9.59845 c 7.60941,7.84969 9.38553,9.51399 9.74867,9.13492 0.24423,-0.25493 5.95237,-6.48343 12.68478,-13.84111 z"
       id="path4507"
       inkscape:connector-curvature="0" />
  </g>
</svg>
